<svg width="512" height="425" viewBox="0 0 512 425" fill="none" xmlns="http://www.w3.org/2000/svg"><defs/><path d="M230.565 9.167c0-1.993-.707-3.497-1.992-4.237-1.284-.745-6.429-3.72-7.713-4.46-1.284-.746-2.941-.599-4.665.404h.001L56.965 93.007c-2.05 1.197-3.82 3.371-4.889 5.76l178.489 103.196V9.167z" fill="#F0F0F0"/><path d="M51 415.45c0 1.993.709 3.5 1.993 4.244.546.315 6.429 3.716 7.713 4.46a3.574 3.574 0 001.812.471c.89 0 1.86-.29 2.852-.864l159.228-92.147c2.561-1.474 5.966-3.934 5.966-8.252V201.963L52.076 98.767c-.676 1.509-1.075 3.103-1.075 4.594V415.45H51z" fill="#E0E0E0"/><path d="M224.254 5.932L65.025 98.064c-3.093 1.807-5.62 6.161-5.62 9.759V419.91c0 3.598 2.527 5.043 5.62 3.254l159.229-92.149c3.11-1.79 5.62-4.072 5.62-7.652V9.167c0-3.58-2.509-5.043-5.62-3.235z" fill="#FAFAFA"/><path d="M62.519 424.624a3.574 3.574 0 01-1.812-.471c-1.285-.742-1.993-2.25-1.993-4.244V107.821c0-3.853 2.619-8.402 5.963-10.355L223.91 5.333h-.001c1.724-1.003 3.38-1.149 4.665-.405 1.284.74 1.992 2.245 1.992 4.238V323.36c0 4.318-3.405 6.777-5.966 8.251L65.37 423.76c-.992.574-1.962.864-2.851.864zM226.77 5.845c-.648 0-1.387.23-2.169.684h-.001L65.37 98.661c-2.907 1.699-5.276 5.808-5.276 9.16v312.088c0 1.478.464 2.56 1.304 3.047.835.481 2.002.345 3.282-.393l159.229-92.148c3.647-2.1 5.274-4.274 5.274-7.053V9.167c0-1.476-.462-2.557-1.299-3.04a2.2 2.2 0 00-1.114-.282z" fill="#E6E6E6"/><path d="M66.402 112.669v-2.075c0-.449.177-.915.396-1.043l.108-.063c.219-.127.396.134.396.583v2.076c0 .449-.177.915-.396 1.041l-.108.063c-.219.128-.396-.133-.396-.582zM68.201 111.627v-3.587c0-.449.177-.914.396-1.039l.11-.065c.218-.126.395.135.395.585v3.586c0 .449-.177.914-.396 1.04l-.11.063c-.218.126-.395-.134-.395-.583zM70.003 110.587v-5.096c0-.449.177-.915.395-1.041l.109-.064c.218-.126.395.136.395.583v5.097c0 .449-.177.915-.395 1.041l-.109.063c-.218.127-.395-.134-.395-.583zM71.802 109.545v-8.798c0-.448.177-.914.395-1.04l.11-.063c.219-.126.395.136.395.584v8.795c0 .449-.178.915-.396 1.041l-.109.064c-.218.126-.395-.134-.395-.583zM76.675 107.331c-.036-.04-.055-.127-.055-.264v-1.291l-2.017 1.167c-.111.063-.165.005-.165-.18v-.463c0-.104.006-.191.018-.254.014-.063.037-.147.071-.249l2.145-5.864c.04-.107.073-.181.102-.23a.377.377 0 01.14-.127l.281-.16c.085-.051.145-.053.184-.007.038.045.057.142.057.284v4.511l.446-.258c.086-.049.144-.053.178-.008.034.046.05.14.05.283v.307a.86.86 0 01-.05.323.396.396 0 01-.178.193l-.446.258v1.292a.8.8 0 01-.054.326.443.443 0 01-.187.2l-.338.194c-.086.053-.146.058-.182.017zm.078-2.732v-3.217l-1.464 4.065 1.464-.848zM79.071 105.164c-.395-.467-.593-1.347-.593-2.639 0-1.285.199-2.392.596-3.319.396-.928.954-1.6 1.67-2.014a2.3 2.3 0 01.81-.308c.25-.04.458-.01.623.09.038.022.057.061.057.116a.577.577 0 01-.025.149l-.185.674c-.026.083-.05.133-.077.148-.014.007-.04.004-.083-.009-.29-.12-.633-.065-1.03.165-.485.28-.865.742-1.142 1.389-.275.649-.413 1.466-.413 2.455 0 .998.134 1.662.402 1.989.267.329.634.358 1.1.088.17-.097.335-.217.497-.36.161-.143.293-.289.395-.438v-2.097l-.84.484c-.086.051-.144.053-.178.008-.035-.045-.052-.138-.052-.282v-.295c0-.143.017-.253.052-.329a.416.416 0 01.178-.19l1.343-.776c.092-.054.16-.052.2.005.042.054.061.167.061.334v2.991c0 .113-.006.203-.019.266a.61.61 0 01-.082.201 4.326 4.326 0 01-1.591 1.577c-.722.418-1.28.394-1.674-.073zM220.865 18.03c-.256-.377-.575-.48-.902-.291l-6.815 3.936c-.587.34-1.048 1.551-1.048 2.757v5.103c0 .672.14 1.25.395 1.626a.91.91 0 00.365.334c.172.077.352.062.536-.043l6.815-3.936c.587-.34 1.048-1.551 1.048-2.76v-5.1c.001-.671-.139-1.25-.394-1.626zm-8.12 12.475c-.093-.136-.145-.409-.145-.747v-5.101c0-.89.365-1.852.798-2.1l6.815-3.937c.106-.06.206-.073.287-.036.044.02.083.054.117.103.094.136.146.409.146.745v5.102c0 .892-.365 1.853-.799 2.102l-6.815 3.937c-.165.096-.31.072-.404-.068z" fill="#455A64"/><path d="M217.046 21.358v6.04l-3.669 2.122c-.06.037-.095.03-.119.04.011-.029 0-.094 0-.206V24.77c0-.648.284-1.384.592-1.561l3.196-1.85zM221.598 19.494c.251-.15.455.58.455 1.627v.949c0 1.047-.206 2.036-.46 2.208l-.461.313.011-4.826c0-.002.205-.123.455-.271zM90.616 97.84c0 .997-.524 2.109-1.17 2.482-.647.374-1.172-.131-1.172-1.128 0-.997.525-2.109 1.171-2.482.647-.373 1.171.131 1.171 1.128z" fill="#455A64"/><path d="M89.446 93.758c-1.18.682-2.204 2.295-2.724 4.093-.104.364-.051.712.124.822l.003.001c.222.14.55-.15.68-.61.363-1.272 1.087-2.41 1.917-2.89.831-.48 1.555-.178 1.916.674.132.31.461.22.684-.178l.002-.004c.176-.314.228-.721.123-.964-.52-1.198-1.545-1.625-2.725-.944z" fill="#455A64"/><path d="M89.445 90.868c-1.753 1.015-3.297 3.32-4.18 5.96-.131.388-.093.779.095.899l.004.002c.215.137.524-.131.67-.572.717-2.156 1.976-4.042 3.41-4.87 1.434-.83 2.698-.403 3.415.926.146.272.456.181.67-.203.19-.34.226-.772.097-1.011-.875-1.622-2.424-2.147-4.18-1.131zM138.132 74.469a.65.65 0 01-.067.278.417.417 0 01-.157.193l-.335.192c-.062.035-.112.03-.156-.012-.045-.04-.067-.108-.067-.202v-6.962l-1.328 2.322c-.044.091-.1.148-.162.17-.061.019-.111.005-.15-.04l-.194-.278c-.04-.054-.051-.133-.045-.228a.731.731 0 01.09-.28l1.752-3.084a.526.526 0 01.129-.162c.05-.038.09-.065.134-.091l.335-.191c.062-.038.111-.032.156.009.044.04.067.11.067.202v8.164h-.002zM140.068 67.739c.062-.037.111-.032.157.008.044.042.062.116.062.208v.846c0 .094-.017.18-.062.275a.424.424 0 01-.157.192l-.552.32c-.062.034-.111.032-.15-.015-.044-.042-.067-.109-.067-.203v-.846a.66.66 0 01.067-.28.386.386 0 01.15-.184l.552-.321zm0 4.422c.062-.035.111-.03.157.009.044.042.062.115.062.209v.846a.603.603 0 01-.062.272.415.415 0 01-.157.193l-.552.32c-.062.036-.111.032-.15-.017-.044-.04-.067-.108-.067-.199v-.846a.67.67 0 01.067-.282.386.386 0 01.15-.185l.552-.32zM144.1 71.358c-.062.036-.111.031-.157-.009-.044-.04-.066-.109-.066-.202v-1.744l-2.572 1.486c-.062.035-.112.031-.157-.01-.044-.042-.067-.11-.067-.202v-.455a1.31 1.31 0 01.118-.498l2.588-6.728c.044-.119.09-.217.145-.305a.492.492 0 01.173-.18l.33-.194c.062-.035.111-.029.157.011.044.041.066.108.066.202v5.282l.703-.405c.062-.038.111-.031.156.01.045.04.067.107.067.2v.453a.642.642 0 01-.067.281.416.416 0 01-.156.192l-.703.405v1.743a.655.655 0 01-.066.281.419.419 0 01-.157.191l-.335.195zm-.222-3.092v-3.563l-1.78 4.59 1.78-1.027zM146.952 67.576c.027.118.067.23.117.335a.511.511 0 00.217.236c.1.045.229.059.391.031.161-.025.374-.115.63-.264a2.445 2.445 0 00.887-.904 3.01 3.01 0 00.268-.652c.072-.242.106-.499.106-.777 0-.27-.034-.48-.1-.631-.062-.156-.15-.255-.263-.304a.615.615 0 00-.402-.011 1.89 1.89 0 00-.496.207l-.686.4c-.055.03-.106.025-.15-.016-.044-.04-.067-.109-.067-.203v-.454c0-.077.016-.157.044-.235.034-.084.061-.158.083-.216l1.478-3.308-2.359 1.363c-.062.036-.111.03-.157-.012-.044-.04-.067-.108-.067-.199v-.455c0-.093.023-.186.067-.28a.39.39 0 01.157-.19l3.23-1.868c.055-.032.111-.032.156.01a.31.31 0 01.062.208v.455a.77.77 0 01-.039.242c-.028.09-.062.175-.106.27l-1.45 3.251c.273-.148.524-.229.748-.234a.836.836 0 01.586.177c.161.13.284.33.374.595.089.266.134.597.134.992 0 .428-.051.84-.162 1.248a5.188 5.188 0 01-.435 1.11 4.569 4.569 0 01-.646.912c-.252.272-.52.49-.792.647-.368.214-.686.333-.949.352-.268.026-.485-.022-.653-.142a.954.954 0 01-.391-.49 2.206 2.206 0 01-.133-.74c0-.075.016-.15.055-.228a.311.311 0 01.123-.15l.379-.222c.062-.038.106-.033.145-.003a.311.311 0 01.066.147z" fill="#455A64"/><path d="M137.565 146.892c.83 25.778-13.858 56.228-32.804 68.014-18.947 11.786-34.98.442-35.81-25.336-.83-25.778 13.858-56.228 32.805-68.014 18.946-11.784 34.979-.441 35.809 25.336z" fill="#75B4FF"/><path d="M161.525 143.99c-3.278-4.11-4.737-3.229-5.786 1.203-.721 3.052-2.112 6.432-2.112 6.432-.301-1.281-.965-2.9-1.309-3.523-.684-1.238-1.923-1.363-2.386-1.132-.36.18.173 1.511.162 3.141-.014 2.084-.308 3.512.222 5.681.197.809.069 2.905-.314 3.662-2.164 4.273-10.081 16.327-10.081 16.327-1.697-.904-7.113-3.59-14.348-6.771-6.227-2.737-5.483-2.706-9.158-3.225l-1.634 11.92c7.029 2.654 12.69 5.259 24.052 8.931 3.548 1.147 6.393 1.252 8.071-1.552 1.607-2.684 6.604-12.007 10.098-18.971 1.965-3.915 3.659-7.951 4.609-10.042 3.295-7.264 1.087-10.61-.086-12.081z" fill="#FFA8A7"/><path d="M97.324 218.424c-.72.228-1.453.43-2.16.582-2.16.494-4.232.658-6.215.494a15.787 15.787 0 01-2.792-.43c.228-.861.581-1.936 1.087-3.087.252-.632.58-1.278.947-1.923.278-.48.581-.974.922-1.442l8.21 5.806z" fill="#263238"/><path d="M121.679 188.559l.24 9.044c-.278.43-.544.848-.834 1.265a.101.101 0 01-.025.051c-4.775 6.704-10.321 12.27-16.296 15.989a40.169 40.169 0 01-2.993 1.695 32.4 32.4 0 01-4.447 1.822c-.72.227-1.453.43-2.16.582-3.335-.671-6.026-1.835-7.415-3.53.139-.48.278-.961.442-1.416.821-2.404 1.958-4.554 3.07-6.363 1.743-2.922 3.385-4.997 3.398-5.958l-4.497-15.522-.518-1.821s1.945-8.02-.013-17.128l10.005-2.201.909-.202 9.474-.127.354.038c1.149.139 4.825.582 6.038 1.012 1.124.392 9.247 8.362 8.729 15.989-.164 2.379-1.162 4.706-3.461 6.781z" fill="#455A64"/><path d="M91.576 219.519L84.44 199.31c2.235-4.534 6.362-12.969 6.362-12.969.505-.721 1.042-1.623 1.477-2.36 3.067-5.204.6-13.864-2.647-16.71-6.474 1.275-9.135 12.459-15.31 27.73-1.743 4.31-.653 5.662.553 8.57 1.022 2.465 3.57 8.044 5.987 13.271 3.138 1.981 6.76 2.913 10.715 2.677z" fill="#FFA8A7"/><path d="M124.109 141.289c.072-.802-.197-1.55-.69-2.174-.635-.805-.899-.864-.64-1.929.303-1.25 1.256-2.735.232-4.79-.739-1.487-1.788-3.304-6.772-5.551-5.724-2.58-12.63-1.336-16.276.219-5.367 2.289-7.515 4.98-7.09 10.121-3.488 1.676-4.276 5.023-3.541 7.893.215.84.596 1.666.532 2.53-.074.969-.69 1.795-1.169 2.64-1.102 1.95-1.528 4.361-.778 6.471.75 2.111 2.813 3.792 5.05 3.745-1.013-.618-1.459-2.025-.985-3.115.8 1.505 2.148 3.087 3.404 3.679 1.895.893 3.46 1.097 4.671.915.649-.097.49-1.017.877-1.495.642-.791 1.338-1.544 2.006-2.314l5.312-6.125 8.567-9.881c.039-.044.269-.244.267-.307l1.078 2.2s1.731 2.402 3.558 2.42c1.825.017 1.939-1.441 1.939-1.441-.519.624-1.605.177-1.45-.672.15-.849 1.745-1.339 1.898-3.039z" fill="#263238"/><path d="M117.665 143.522c1.822-.116 5.205 3.323 6.268 6.962.968 3.314.971 7.906-2.18 9.143 0 0 .778-1.903.204-3.304-.048 1.335-1.471 3.528-3.925 4.839-1.985 1.062-4.723 1.907-8.118 1.268-5.38-1.01 7.751-18.908 7.751-18.908z" fill="#263238"/><path d="M114.772 134.061c2.377.907 4.754 4.379 5.169 14.372.351 8.47-2.145 10.728-3.427 11.417-1.282.686-3.852.484-6.355.213l.227 4.869s5.01 8.105 2.883 12.196c-7.859-2.311-13.628-11.99-13.628-11.99l-.682-11.1s-1.873 1.37-3.955-.03c-2.294-1.543-3.046-4.818-1.563-6.603 1.482-1.785 3.48-2.014 5.375-.179 0 0 5.75-.946 8.652-3.009 4.919-3.499 6.246-5.883 7.304-10.156z" fill="#FFA8A7"/><path d="M98.77 145.844l.24 4.703c1.259-.014 2.225-1.079 2.159-2.378-.067-1.298-1.14-2.339-2.398-2.325zM116.625 144.578c-.62.007-1.118.537-1.11 1.183.007.646.516 1.164 1.137 1.157.621-.007 1.118-.537 1.111-1.183-.007-.646-.517-1.164-1.138-1.157zM107.776 145.4c-.666.007-1.2.575-1.192 1.268.008.693.554 1.249 1.221 1.241.666-.007 1.199-.575 1.192-1.268-.008-.693-.554-1.249-1.221-1.241z" fill="#263238"/><path d="M109.5 153.494l4.185.778c-.168 1.24-1.242 2.072-2.398 1.857-1.156-.215-1.955-1.394-1.787-2.635z" fill="#B16668"/><path d="M112.118 156.105a2.012 2.012 0 00-2.232-1.748 2.044 2.044 0 00-.329.073c.217.85.875 1.54 1.731 1.699.286.053.566.041.83-.024z" fill="#F28F8F"/><path d="M118.401 141.632l-3.089-.411c.051-.882.877-1.465 1.731-1.351.853.113 1.409.881 1.358 1.762z" fill="#263238"/><path d="M111.817 144.783l.707 7.003 3.573-1.364-4.28-5.639zM110.158 160.063c-2.633-.188-8.102-1.451-9.08-3.61 0 0 .368 1.373 2.062 2.702 1.695 1.33 7.094 2.545 7.094 2.545l-.076-1.637z" fill="#F28F8F"/><path d="M107.812 151.011a3.904 3.904 0 01-2.651-1.032 3.912 3.912 0 01-1.276-2.73 3.908 3.908 0 011.027-2.833 3.902 3.902 0 012.726-1.279c2.143-.085 4.009 1.589 4.106 3.759a3.945 3.945 0 01-3.754 4.113l-.178.002zm.004-7.439a3.47 3.47 0 00-2.581 1.14 3.483 3.483 0 00-.911 2.517 3.482 3.482 0 001.132 2.426c.689.63 1.574.95 2.514.914a3.5 3.5 0 00-.154-6.997zM117.772 149.919c-.984 0-1.92-.361-2.65-1.031a3.908 3.908 0 01-1.276-2.729 3.914 3.914 0 011.027-2.835 3.9 3.9 0 012.726-1.278 3.937 3.937 0 012.829 1.029 3.913 3.913 0 011.277 2.729 3.909 3.909 0 01-1.027 2.834 3.904 3.904 0 01-2.726 1.279c-.06.002-.12.002-.18.002zm.006-7.436l-.159.003a3.477 3.477 0 00-2.423 1.134 3.489 3.489 0 00-.911 2.518 3.486 3.486 0 001.132 2.427c.69.63 1.577.957 2.515.912a3.471 3.471 0 002.423-1.136 3.5 3.5 0 00-2.577-5.858z" fill="#455A64"/><path d="M111.535 147.365a.22.22 0 01-.22-.21 1.567 1.567 0 01.407-1.124 1.54 1.54 0 011.08-.504c.417-.023.814.125 1.121.407.307.282.487.665.504 1.08a.22.22 0 01-.209.231h-.01a.22.22 0 01-.22-.21 1.105 1.105 0 00-.361-.776 1.063 1.063 0 00-.806-.292 1.11 1.11 0 00-.776.363 1.11 1.11 0 00-.292.806.22.22 0 01-.209.23l-.009-.001zM104.12 147.028h-.018l-5.767-.222s-.328-.236-.72-.463c.013-.002.028-.002.044-.002l6.459.248a.218.218 0 01.211.227.218.218 0 01-.209.212z" fill="#455A64"/><path d="M139.325 124.758c-.039-.057-.054-.136-.045-.238a.686.686 0 01.088-.287l1.85-3.317c.045-.078.092-.155.14-.231a.454.454 0 01.158-.164l.663-.385c.063-.034.117-.032.163.012.044.045.068.114.068.21v8.486a.678.678 0 01-.068.288.434.434 0 01-.163.2l-.69.397c-.063.037-.116.033-.163-.01-.044-.044-.067-.115-.067-.211v-6.489l-1.21 2.156c-.052.091-.106.147-.167.17-.059.021-.112.006-.158-.047l-.399-.54zM143.545 127.06c.011-.13.046-.267.106-.41a.627.627 0 01.26-.314l.741-.428c.051-.029.095-.027.132.009.035.035.055.092.055.172a.475.475 0 01-.009.096l-.562 2.506c-.022.1-.062.213-.115.342a.587.587 0 01-.251.29l-.384.223c-.051.029-.095.025-.131-.012-.037-.035-.056-.092-.056-.17v-.027l.214-2.277zM150.223 118.917c.005.163.009.346.009.547v1.234c0 .2-.004.387-.009.556a11.412 11.412 0 01-.148 1.499 6.14 6.14 0 01-.393 1.354c-.18.425-.413.809-.7 1.154a3.872 3.872 0 01-1.052.877c-.42.243-.772.358-1.056.341a.93.93 0 01-.695-.345c-.179-.216-.309-.516-.392-.903a7.428 7.428 0 01-.148-1.326 28.993 28.993 0 01-.018-1.127c0-.425.005-.807.018-1.146.017-.519.065-1.023.148-1.512.082-.489.213-.948.392-1.376.179-.426.41-.817.695-1.169a3.745 3.745 0 011.056-.894c.415-.239.764-.352 1.052-.339a.94.94 0 01.7.343c.178.217.309.518.393.904.081.387.13.829.148 1.328zm-3.433 4.257c.029.613.126 1.045.294 1.294.168.249.45.258.847.028.397-.23.68-.566.848-1.01.168-.442.267-.986.293-1.633.013-.341.018-.712.018-1.114 0-.402-.005-.765-.018-1.093-.026-.614-.126-1.045-.293-1.295-.168-.247-.451-.258-.848-.03a1.92 1.92 0 00-.847 1.01c-.168.445-.265.988-.294 1.636a32.527 32.527 0 000 2.207zM155.779 115.706c.006.163.008.345.008.546V117.487c0 .2-.002.387-.008.555a11.195 11.195 0 01-.148 1.498 6.165 6.165 0 01-.393 1.355 4.553 4.553 0 01-.699 1.153 3.869 3.869 0 01-1.052.877c-.422.243-.773.358-1.057.341a.931.931 0 01-.695-.345c-.178-.216-.309-.516-.393-.903a7.816 7.816 0 01-.148-1.326 31.33 31.33 0 01-.017-1.127c0-.425.005-.807.017-1.146.018-.519.067-1.023.148-1.512a6.39 6.39 0 01.393-1.376c.179-.426.411-.817.695-1.169a3.722 3.722 0 011.057-.894c.414-.239.764-.352 1.052-.339.287.015.52.129.699.343.179.217.308.518.393.904.082.388.13.83.148 1.33zm-3.434 4.256c.029.614.127 1.045.293 1.294.168.249.45.258.849.028.397-.23.678-.565.847-1.009.168-.443.266-.987.294-1.633.011-.342.016-.713.016-1.115s-.005-.765-.016-1.093c-.028-.613-.128-1.045-.294-1.295-.169-.247-.449-.258-.847-.028-.398.23-.681.567-.849 1.01-.168.445-.265.987-.293 1.635-.012.34-.017.71-.017 1.112 0 .402.005.768.017 1.094zM156.681 118.216c0-.454.06-.895.183-1.32a4.93 4.93 0 01.533-1.208c-.336-.27-.503-.768-.503-1.495 0-.403.056-.804.163-1.198.107-.394.257-.766.447-1.112.19-.346.417-.659.677-.936a3.8 3.8 0 01.853-.685c.307-.177.591-.277.851-.301a1 1 0 01.677.155c.191.126.342.325.448.594.108.271.163.607.163 1.011 0 .368-.045.726-.133 1.075a5.002 5.002 0 01-.371 1.002c.228.115.403.312.529.594.124.285.187.653.187 1.107 0 .43-.056.852-.167 1.267-.11.413-.268.804-.472 1.172a4.977 4.977 0 01-.742 1.013 4.17 4.17 0 01-.971.771c-.358.207-.681.326-.97.351-.291.028-.539-.024-.742-.155-.205-.132-.362-.34-.474-.626-.111-.289-.166-.645-.166-1.076zm1.15-.664c0 .202.035.36.103.473a.492.492 0 00.268.226.746.746 0 00.384.009 1.54 1.54 0 00.447-.18 2.651 2.651 0 00.831-.789c.111-.165.201-.343.269-.537.068-.191.102-.389.102-.592 0-.2-.034-.355-.102-.465a.486.486 0 00-.269-.219.732.732 0 00-.383-.009c-.145.03-.294.091-.448.18a2.67 2.67 0 00-.831.79c-.11.163-.2.34-.268.529a1.702 1.702 0 00-.103.584zm.214-4.025c0 .176.026.313.081.413a.4.4 0 00.221.201.636.636 0 00.316.015c.116-.025.238-.075.37-.148a2.07 2.07 0 00.366-.278c.119-.113.226-.241.32-.382a1.93 1.93 0 00.221-.457c.055-.163.081-.331.081-.506a.868.868 0 00-.081-.412.394.394 0 00-.221-.2.59.59 0 00-.32-.013c-.12.025-.241.073-.366.146a1.803 1.803 0 00-.37.28c-.118.11-.223.236-.316.38-.094.14-.168.293-.221.455a1.56 1.56 0 00-.081.506z" fill="#0085FF"/><path d="M145.875 131.091c.158-.091.308-.148.448-.165a.523.523 0 01.37.073c.108.068.191.184.256.345.063.162.094.382.094.657a2.962 2.962 0 01-.35 1.419 2.39 2.39 0 01-.37.513c-.14.145-.29.264-.448.355l-.892.516v1.832a.396.396 0 01-.038.164.257.257 0 01-.092.113l-.198.115c-.036.021-.066.019-.091-.006-.027-.027-.04-.066-.04-.121v-4.827a.38.38 0 01.04-.165.25.25 0 01.091-.113l1.22-.705zm-.892 3.041l.867-.5c.233-.135.413-.317.54-.546.129-.229.192-.501.192-.821 0-.318-.064-.513-.192-.584-.127-.072-.307-.038-.54.096l-.867.501v1.854zM148.567 130.806c.174-.1.328-.149.463-.147a.539.539 0 01.35.139.904.904 0 01.232.394c.055.176.089.379.103.616.003.043.005.095.005.158v.387a4.507 4.507 0 01-.112.899 3.212 3.212 0 01-.228.654 2.54 2.54 0 01-.35.543c-.135.161-.29.291-.463.392-.176.101-.331.15-.466.147a.537.537 0 01-.349-.138.914.914 0 01-.23-.391 2.383 2.383 0 01-.105-.62 2.36 2.36 0 01-.006-.149 3.918 3.918 0 010-.387 4.102 4.102 0 01.111-.902c.057-.239.133-.458.23-.659s.214-.383.349-.544c.135-.161.29-.291.466-.392zm.706 1.923a4.673 4.673 0 000-.628 1.926 1.926 0 00-.063-.382.616.616 0 00-.135-.258.32.32 0 00-.213-.102.544.544 0 00-.295.09 1.038 1.038 0 00-.296.253 1.552 1.552 0 00-.213.347c-.058.13-.104.265-.135.414-.032.148-.055.3-.064.456-.007.093-.01.199-.01.322s.003.224.01.305c.009.143.032.271.064.382.031.11.078.196.135.258a.32.32 0 00.213.101.549.549 0 00.296-.09c.114-.065.211-.149.295-.253.083-.103.155-.218.213-.346.059-.128.103-.266.135-.414.033-.148.053-.301.063-.455zM151.764 131.841c0-.094-.016-.164-.05-.206a.211.211 0 00-.153-.073 1.037 1.037 0 00-.259.024c-.105.02-.227.049-.366.083-.263.067-.446.032-.551-.103-.105-.136-.158-.337-.158-.601a1.966 1.966 0 01.234-.919c.077-.149.175-.287.292-.416a1.74 1.74 0 01.414-.329c.159-.091.297-.144.414-.158a.549.549 0 01.298.036.424.424 0 01.185.167.524.524 0 01.067.241.31.31 0 01-.036.163.275.275 0 01-.093.117l-.161.091a.165.165 0 01-.07.023c-.029.002-.053-.012-.076-.042a.249.249 0 00-.187-.106c-.081-.011-.196.027-.341.112a1.049 1.049 0 00-.36.337.76.76 0 00-.138.431.42.42 0 00.038.205c.025.042.07.067.126.077a.66.66 0 00.232-.018c.094-.02.214-.046.356-.079a.966.966 0 01.374-.027c.098.022.18.061.241.123a.518.518 0 01.131.244c.026.104.038.22.038.348 0 .15-.024.309-.07.474a2.326 2.326 0 01-.518.921 1.795 1.795 0 01-.425.342 1.061 1.061 0 01-.422.154.65.65 0 01-.314-.038.438.438 0 01-.201-.168.496.496 0 01-.076-.244.348.348 0 01.033-.161.245.245 0 01.097-.116l.176-.102a.22.22 0 01.068-.027c.025-.008.049.008.072.044.052.08.124.123.215.131.088.008.207-.03.352-.115a1.314 1.314 0 00.396-.37 1.13 1.13 0 00.128-.236.644.644 0 00.048-.234zM153.441 130.638c0 .095.007.18.018.256a.446.446 0 00.061.177.143.143 0 00.125.067.39.39 0 00.206-.07l.256-.148c.034-.02.067-.018.091.007.027.025.039.066.039.12v.239a.405.405 0 01-.039.165.247.247 0 01-.091.112l-.306.177c-.281.162-.485.168-.61.018-.126-.152-.188-.439-.188-.864v-1.934l-.361.205c-.036.021-.066.019-.091-.007-.027-.025-.039-.064-.039-.119v-.239c0-.054.012-.108.039-.165a.243.243 0 01.091-.113l.359-.206v-1.218c0-.055.013-.112.039-.166a.262.262 0 01.091-.113l.18-.103c.034-.022.066-.019.091.006.026.025.038.066.038.12v1.218l.617-.356c.035-.021.067-.018.091.007.026.026.039.065.039.119v.239a.399.399 0 01-.039.166.244.244 0 01-.091.111l-.617.357v1.935h.001zM156.156 129.303c0-.097-.016-.165-.05-.208a.207.207 0 00-.153-.072 1.033 1.033 0 00-.259.023 9.055 9.055 0 00-.366.083c-.262.069-.445.032-.551-.102-.105-.137-.158-.338-.158-.602a1.978 1.978 0 01.234-.919c.078-.148.175-.287.293-.415.118-.129.255-.237.414-.329.158-.091.296-.145.414-.158a.536.536 0 01.297.036.418.418 0 01.185.167.534.534 0 01.068.24.328.328 0 01-.037.163.249.249 0 01-.093.115l-.161.093a.17.17 0 01-.07.021c-.028.004-.053-.01-.076-.042a.255.255 0 00-.186-.106c-.082-.009-.197.029-.342.114a1.037 1.037 0 00-.362.337.753.753 0 00-.137.43c0 .095.014.163.038.206.026.042.069.067.127.077a.64.64 0 00.231-.019c.095-.02.214-.046.355-.08a.943.943 0 01.374-.025c.1.02.181.061.242.121a.525.525 0 01.131.246c.025.102.038.219.038.348 0 .149-.023.307-.071.474a2.115 2.115 0 01-.199.482 2.54 2.54 0 01-.319.439 1.82 1.82 0 01-.424.342 1.097 1.097 0 01-.422.155.64.64 0 01-.315-.039.43.43 0 01-.201-.167.498.498 0 01-.075-.244.352.352 0 01.033-.162.25.25 0 01.097-.116l.175-.102a.268.268 0 01.069-.026c.026-.008.049.007.073.044a.27.27 0 00.213.132c.09.007.209-.032.353-.117a1.314 1.314 0 00.524-.606.597.597 0 00.049-.232z" fill="#455A64"/><path d="M171.006 103.826c0-.096.023-.191.067-.288a.43.43 0 01.163-.199l3.202-1.852c.063-.035.118-.033.163.012.044.044.068.114.068.21v.932a.705.705 0 01-.068.29.422.422 0 01-.163.198l-2.395 1.384-.092 1.736c.153-.185.304-.33.455-.434a6.57 6.57 0 01.37-.242c.319-.183.614-.288.887-.314.272-.026.507.032.708.176.199.143.354.371.468.682.115.31.17.712.17 1.201 0 .56-.058 1.075-.175 1.539a5.476 5.476 0 01-.477 1.262 4.187 4.187 0 01-1.581 1.655c-.392.226-.728.35-1.009.373-.282.023-.515-.031-.699-.167a1.213 1.213 0 01-.417-.587 2.916 2.916 0 01-.158-.886.56.56 0 01.065-.294.462.462 0 01.165-.195l.69-.397c.057-.033.108-.033.154-.002.044.029.077.088.093.175.033.181.088.314.162.398a.47.47 0 00.255.155.628.628 0 00.324-.037c.12-.041.245-.101.375-.178.324-.186.586-.474.784-.86.199-.386.298-.816.298-1.289 0-.393-.099-.665-.298-.813-.198-.146-.46-.132-.784.046a2.232 2.232 0 00-.403.291c-.1.099-.181.191-.243.28l-.17.238a.657.657 0 01-.196.173l-.783.452c-.063.036-.118.031-.163-.013-.046-.042-.068-.111-.068-.21l.256-4.601zM178.503 103.182c.171-.308.281-.587.329-.834.048-.245.073-.462.073-.645 0-.361-.072-.622-.214-.791-.141-.168-.377-.157-.706.034a1.622 1.622 0 00-.686.752c-.144.32-.247.682-.31 1.085a.847.847 0 01-.103.315.49.49 0 01-.152.176l-.674.39c-.063.035-.117.034-.167-.003-.048-.038-.069-.11-.063-.219.018-.405.081-.816.195-1.231.114-.416.266-.812.456-1.185.189-.372.412-.708.668-1.011.255-.3.532-.537.826-.708.358-.206.667-.295.929-.267.26.03.476.135.648.322.17.187.295.43.379.726.082.298.123.619.123.961 0 .217-.008.433-.026.637a3.898 3.898 0 01-.119.662 6.007 6.007 0 01-.274.775c-.119.284-.278.605-.476.966l-1.577 3.132 2.37-1.37c.062-.036.115-.032.161.012.046.043.069.114.069.21v.931a.67.67 0 01-.069.29.434.434 0 01-.161.199l-3.979 2.301c-.063.035-.117.031-.162-.013-.045-.043-.068-.114-.068-.21v-.801c0-.148.027-.293.085-.437a2.6 2.6 0 01.144-.314l2.531-4.837zM185.642 98.436c.005.164.009.346.009.548v1.234c0 .201-.004.388-.009.556a11.429 11.429 0 01-.148 1.499 6.042 6.042 0 01-.393 1.355c-.18.424-.412.808-.698 1.152a3.848 3.848 0 01-1.054.877c-.42.244-.772.358-1.056.343a.931.931 0 01-.695-.347c-.179-.215-.309-.516-.392-.902a7.705 7.705 0 01-.148-1.327 28.924 28.924 0 01-.018-1.127c0-.425.005-.806.018-1.146.017-.517.067-1.022.148-1.511.082-.489.213-.95.392-1.376.18-.426.411-.817.695-1.17.284-.351.636-.65 1.056-.894.416-.239.766-.35 1.054-.338a.94.94 0 01.698.344c.18.217.308.518.393.904.081.387.131.83.148 1.326zm-3.434 4.258c.028.614.127 1.045.294 1.294.168.25.451.26.847.03a1.91 1.91 0 00.848-1.01c.168-.444.266-.987.293-1.634a31.835 31.835 0 000-2.206c-.027-.615-.126-1.045-.293-1.296-.168-.248-.449-.258-.848-.028a1.92 1.92 0 00-.847 1.009c-.168.445-.266.988-.294 1.635a35.479 35.479 0 000 2.206zM191.316 100.371a.176.176 0 01.052.089c.005.033.009.057.009.074a.686.686 0 01-.068.29.442.442 0 01-.163.199l-.81.466c-.114.067-.205.075-.273.021-.068-.052-.109-.083-.12-.095l-2.001-2.323v3.428a.7.7 0 01-.069.29.43.43 0 01-.163.199l-.69.398c-.062.036-.116.032-.162-.013-.045-.043-.068-.113-.068-.21V94.7c0-.096.023-.192.068-.288a.436.436 0 01.162-.199l.69-.398c.064-.037.117-.032.163.011.044.045.069.114.069.21v3.087l1.857-4.227c.051-.117.105-.218.162-.304a.665.665 0 01.222-.205l.783-.454c.062-.035.118-.032.162.012.045.045.068.114.068.21 0 .071-.016.146-.05.227l-2.292 5.175 2.462 2.814z" fill="#0085FF"/><path d="M172.542 115.67c.034-.021.067-.018.091.007.027.026.039.065.039.119v.27a.395.395 0 01-.039.165.254.254 0 01-.091.114l-1.595.922v1.726l1.498-.867c.037-.021.067-.019.092.005.027.027.039.067.039.122v.269a.386.386 0 01-.039.163.244.244 0 01-.092.116l-1.498.866v1.958a.4.4 0 01-.038.165.26.26 0 01-.092.112l-.199.115c-.035.022-.065.019-.091-.006-.026-.027-.039-.066-.039-.12v-4.827c0-.055.013-.109.039-.166a.262.262 0 01.091-.113l1.924-1.115zM174.206 115.98c.175-.1.33-.149.465-.147a.54.54 0 01.349.139.893.893 0 01.231.394c.055.175.091.379.103.616.004.043.007.095.007.158v.387a4.415 4.415 0 01-.113.899 3.096 3.096 0 01-.228.654 2.642 2.642 0 01-.349.543c-.135.161-.29.291-.465.391-.175.101-.329.149-.465.147a.533.533 0 01-.348-.138.911.911 0 01-.231-.391 2.426 2.426 0 01-.105-.62 3.286 3.286 0 01-.007-.149 11.67 11.67 0 010-.387 4.182 4.182 0 01.112-.902c.056-.238.135-.458.231-.658.096-.201.213-.383.348-.544a1.75 1.75 0 01.465-.392zm.708 1.923c.006-.088.008-.194.008-.315 0-.124-.002-.227-.008-.313a1.841 1.841 0 00-.064-.382.616.616 0 00-.135-.258.32.32 0 00-.213-.102.555.555 0 00-.296.089c-.112.066-.211.15-.295.253a1.665 1.665 0 00-.214.348 2.114 2.114 0 00-.135.414c-.032.148-.053.3-.063.455a5.028 5.028 0 000 .628c.01.143.03.27.063.382a.64.64 0 00.135.258c.06.061.13.093.214.101a.544.544 0 00.295-.09c.114-.066.212-.149.296-.253a1.63 1.63 0 00.213-.346c.058-.128.104-.266.135-.414.033-.148.053-.301.064-.455zM176.412 118.464a.4.4 0 01-.038.163.25.25 0 01-.093.114l-.179.104c-.037.021-.067.019-.092-.006-.025-.026-.039-.066-.039-.121v-4.901c0-.055.014-.112.039-.166a.25.25 0 01.092-.113l.179-.105c.036-.02.067-.017.093.008.025.025.038.065.038.119v4.904zM177.577 117.789a.384.384 0 01-.038.164.255.255 0 01-.091.113l-.18.103c-.036.022-.066.019-.091-.006-.027-.025-.039-.064-.039-.119v-4.904c0-.054.012-.109.039-.165a.24.24 0 01.091-.112l.18-.104c.035-.02.066-.019.091.006.027.026.038.066.038.121v4.903zM179.339 113.012c.175-.101.329-.149.464-.146.135.004.253.05.349.138.097.089.175.22.232.394.056.176.09.38.104.617.002.042.005.094.005.157v.387c0 .063-.003.115-.005.157a4.467 4.467 0 01-.108.741 3.105 3.105 0 01-.228.655 2.62 2.62 0 01-.349.544c-.135.16-.291.29-.464.391-.175.101-.331.151-.466.147a.525.525 0 01-.348-.139.89.89 0 01-.23-.39 2.35 2.35 0 01-.105-.62 5.913 5.913 0 010-.701c.012-.251.048-.498.105-.737.055-.239.132-.459.23-.659.097-.2.213-.381.348-.543.135-.162.291-.292.466-.393zm.708 1.921a4.615 4.615 0 000-.627 1.866 1.866 0 00-.063-.383.624.624 0 00-.136-.257.318.318 0 00-.213-.101.528.528 0 00-.294.088 1.053 1.053 0 00-.296.252c-.085.105-.155.22-.215.348a2.217 2.217 0 00-.135.415 3.397 3.397 0 00-.072.778c0 .122.003.225.009.303.01.144.031.272.063.384.033.111.08.197.135.256.06.062.13.095.215.102a.54.54 0 00.296-.089c.112-.066.211-.149.294-.252a1.62 1.62 0 00.213-.348c.058-.129.104-.266.136-.414.031-.148.053-.299.063-.455zM183.401 113.413l.543-2.811a.836.836 0 01.053-.151.282.282 0 01.112-.124l.159-.092c.033-.019.061-.018.082.004.024.023.035.059.035.109 0 .02-.002.04-.005.062l-.743 3.868a1.346 1.346 0 01-.049.179.241.241 0 01-.095.114l-.151.086c-.041.026-.073.023-.094-.007a.55.55 0 01-.056-.114l-.576-2.149-.577 2.817a1.767 1.767 0 01-.056.178.222.222 0 01-.094.118l-.15.086c-.042.024-.074.023-.094-.004a.341.341 0 01-.051-.121l-.743-3.01c-.003-.017-.003-.036-.003-.057 0-.049.01-.098.033-.148a.216.216 0 01.083-.098l.16-.093c.048-.029.085-.03.111-.005a.23.23 0 01.054.089l.543 2.183.581-2.832a1.06 1.06 0 01.046-.147.242.242 0 01.104-.119l.107-.062c.048-.029.084-.029.105-.002a.3.3 0 01.046.093l.58 2.16zM184.737 111.535a3.817 3.817 0 01.336-1.36 2.53 2.53 0 01.337-.549c.131-.158.277-.286.438-.378.176-.102.333-.148.469-.141a.488.488 0 01.35.175c.097.107.173.263.224.468.051.205.079.45.079.74v.202c0 .055-.015.11-.039.165a.274.274 0 01-.092.114l-1.668.963v.045c.008.335.075.555.202.664.128.109.287.106.477-.003a1.2 1.2 0 00.4-.348c.089-.129.161-.255.216-.382a.907.907 0 01.068-.122.264.264 0 01.088-.072l.144-.084c.035-.021.069-.02.097.003.029.025.04.064.034.122a1.602 1.602 0 01-.083.343c-.045.133-.11.271-.195.411a2.418 2.418 0 01-.321.418 1.991 1.991 0 01-.448.353c-.162.092-.306.132-.436.121a.535.535 0 01-.337-.164 1.062 1.062 0 01-.232-.404 2.399 2.399 0 01-.107-.615 5.045 5.045 0 01-.001-.685zm.432-.228l1.363-.788v-.023c0-.303-.063-.511-.187-.62-.126-.111-.291-.106-.498.016-.092.053-.18.127-.261.221-.08.095-.152.202-.213.325a1.992 1.992 0 00-.145.402 2.146 2.146 0 00-.059.446v.021zM188.834 107.595c.034-.02.066-.019.091.006.027.027.039.066.039.121v.239a.371.371 0 01-.039.164.25.25 0 01-.091.113l-.281.163c-.372.215-.557.607-.557 1.181v2.185a.388.388 0 01-.038.163.255.255 0 01-.093.114l-.179.104c-.037.02-.067.017-.092-.008-.025-.025-.039-.064-.039-.119v-3.483a.41.41 0 01.039-.166.236.236 0 01.092-.112l.179-.103c.036-.022.067-.021.093.005.026.026.038.067.038.121v.233c.065-.187.141-.342.232-.464.09-.123.208-.225.352-.309l.254-.148zM190.822 109.257c0-.094-.016-.164-.051-.206a.209.209 0 00-.152-.073 1.03 1.03 0 00-.259.024c-.105.02-.228.049-.367.083-.262.067-.444.032-.55-.103-.105-.136-.158-.337-.158-.601a2.008 2.008 0 01.525-1.335c.119-.128.257-.238.415-.329.159-.091.296-.144.414-.158a.549.549 0 01.298.036.421.421 0 01.184.167.5.5 0 01.067.24.311.311 0 01-.035.163.284.284 0 01-.094.117l-.16.091a.156.156 0 01-.071.022c-.027.003-.053-.011-.075-.041a.25.25 0 00-.187-.107c-.081-.01-.196.028-.341.113-.148.085-.27.197-.36.336a.755.755 0 00-.138.432c0 .093.012.163.038.205a.178.178 0 00.126.077.683.683 0 00.231-.018c.095-.02.215-.047.356-.08a.963.963 0 01.374-.026.466.466 0 01.242.123.527.527 0 01.131.244c.025.103.038.22.038.348 0 .15-.024.308-.071.474a2.326 2.326 0 01-.518.921c-.124.135-.266.25-.424.343a1.061 1.061 0 01-.422.154.652.652 0 01-.315-.038.438.438 0 01-.201-.168.495.495 0 01-.075-.244.324.324 0 01.033-.161.245.245 0 01.097-.116l.175-.102a.237.237 0 01.069-.027c.024-.008.049.008.072.044a.268.268 0 00.214.131c.089.008.208-.03.353-.115a1.358 1.358 0 00.395-.37c.053-.077.096-.153.129-.236a.64.64 0 00.048-.234z" fill="#455A64"/><path d="M206.312 92.254c-.062.034-.117.032-.161-.012-.046-.045-.069-.114-.069-.21v-1.59l-2.641 1.527c-.063.035-.117.032-.163-.012-.045-.042-.068-.114-.068-.21v-.932c0-.123.018-.24.056-.353.036-.115.08-.238.131-.373l2.607-6.525c.114-.285.23-.46.349-.53l.648-.373c.063-.037.117-.033.163.01.044.044.067.115.067.211v5.254l.734-.424c.063-.036.116-.03.161.011.046.044.07.114.07.21v.932a.657.657 0 01-.07.29.423.423 0 01-.161.199l-.734.424v1.59a.7.7 0 01-.067.29.427.427 0 01-.163.197l-.689.4zm-.228-3.454v-2.811l-1.458 3.653 1.458-.842zM209.312 81.68a.7.7 0 01.067-.29.43.43 0 01.163-.2l3.203-1.851c.063-.037.117-.032.163.011.044.045.068.114.068.21v.933a.7.7 0 01-.068.29.431.431 0 01-.163.198l-2.394 1.385-.092 1.734c.152-.184.304-.329.454-.434.151-.105.276-.185.372-.24.318-.185.612-.29.885-.316.273-.027.508.033.709.176.198.143.354.37.467.681.115.312.171.713.171 1.204 0 .557-.058 1.073-.176 1.539a5.408 5.408 0 01-.476 1.26 4.199 4.199 0 01-1.58 1.654c-.393.228-.729.353-1.011.375-.282.024-.513-.033-.698-.167a1.207 1.207 0 01-.417-.587 2.85 2.85 0 01-.158-.887.558.558 0 01.064-.293.452.452 0 01.166-.194l.689-.4c.057-.031.109-.031.155-.002.045.032.077.089.093.176.033.183.087.316.162.398a.443.443 0 00.255.155.612.612 0 00.325-.036 2.32 2.32 0 00.375-.177c.323-.187.585-.474.783-.86.198-.388.298-.817.298-1.29 0-.395-.1-.664-.298-.814-.198-.148-.46-.131-.783.047a2.012 2.012 0 00-.405.291c-.099.096-.18.19-.242.28a12.79 12.79 0 01-.171.236.629.629 0 01-.195.173l-.784.453c-.063.036-.117.03-.163-.012-.045-.043-.068-.114-.068-.21l.255-4.6zM218.734 79.305c.005.163.009.345.009.547v1.234c0 .2-.004.388-.009.556a11.437 11.437 0 01-.148 1.5 6.15 6.15 0 01-.393 1.354 4.613 4.613 0 01-.699 1.153 3.856 3.856 0 01-1.053.876c-.421.244-.772.358-1.056.343a.93.93 0 01-.695-.347c-.179-.215-.309-.516-.393-.902a7.718 7.718 0 01-.147-1.326 28.943 28.943 0 01-.018-1.128c0-.425.005-.805.018-1.146a11.59 11.59 0 01.147-1.511 6.2 6.2 0 01.393-1.375 4.89 4.89 0 01.695-1.17c.284-.352.635-.65 1.056-.895.416-.239.765-.35 1.053-.337.287.015.518.13.699.344.179.216.308.517.393.903.082.387.131.83.148 1.327zm-3.432 4.258c.027.613.126 1.044.293 1.292.168.25.449.26.847.03.398-.23.68-.566.848-1.01.168-.444.266-.987.293-1.634.013-.34.018-.713.018-1.115s-.005-.766-.018-1.091c-.027-.615-.126-1.045-.293-1.296-.168-.248-.449-.258-.848-.028a1.92 1.92 0 00-.847 1.009c-.168.445-.266.987-.293 1.635-.013.342-.018.711-.018 1.113 0 .404.005.768.018 1.095z" fill="#0085FF"/><path d="M202.809 98.17c.035-.02.067-.017.092.008.025.026.039.065.039.12v.269a.397.397 0 01-.039.165.26.26 0 01-.092.114l-1.596.922v1.726l1.499-.867c.036-.021.067-.019.093.005.025.027.038.067.038.122v.269a.384.384 0 01-.038.163.251.251 0 01-.093.116l-1.499.866v1.958a.398.398 0 01-.037.165.266.266 0 01-.091.112l-.199.115c-.036.022-.067.019-.092-.006-.026-.027-.039-.066-.039-.12v-4.827c0-.055.013-.11.039-.166a.244.244 0 01.092-.113l1.923-1.115zM204.472 98.48c.174-.1.329-.148.464-.146a.541.541 0 01.35.14.9.9 0 01.231.393c.055.175.09.38.103.616.003.043.005.095.005.158v.387a4.415 4.415 0 01-.112.899 3.151 3.151 0 01-.227.654 2.646 2.646 0 01-.35.543 1.738 1.738 0 01-.464.391c-.175.101-.331.149-.466.147a.537.537 0 01-.349-.138.92.92 0 01-.23-.391 2.386 2.386 0 01-.104-.62c-.004-.037-.005-.086-.007-.149a5.839 5.839 0 010-.387c.002-.064.003-.118.007-.165a4.09 4.09 0 01.104-.737c.057-.24.133-.458.23-.66.098-.2.214-.383.349-.543.136-.16.292-.289.466-.391zm.708 1.924a4.673 4.673 0 000-.628 1.843 1.843 0 00-.064-.382.601.601 0 00-.135-.258.32.32 0 00-.212-.102.548.548 0 00-.296.09c-.113.065-.212.149-.295.252a1.543 1.543 0 00-.214.348 2.04 2.04 0 00-.135.414c-.031.148-.054.3-.064.455a4.44 4.44 0 00-.009.323c0 .123.002.224.009.305.01.143.031.27.064.382.032.11.077.196.135.258a.325.325 0 00.214.101.546.546 0 00.295-.09c.113-.066.211-.149.296-.253.082-.103.154-.219.212-.346.06-.128.104-.266.135-.414.033-.148.053-.301.064-.455zM206.678 100.965a.38.38 0 01-.038.164.24.24 0 01-.092.113l-.179.104c-.036.021-.067.019-.091-.007-.027-.026-.041-.065-.041-.12v-4.901c0-.055.014-.112.041-.166a.242.242 0 01.091-.113l.179-.104c.035-.021.067-.019.092.007.027.025.038.066.038.12v4.903zM207.845 100.291a.408.408 0 01-.038.164.257.257 0 01-.092.113l-.179.104c-.037.02-.067.018-.093-.007-.026-.026-.039-.065-.039-.119v-4.903c0-.055.013-.11.039-.165a.263.263 0 01.093-.114l.179-.103c.035-.02.067-.018.092.007.026.025.038.065.038.12v4.903zM209.606 95.513c.174-.1.33-.148.465-.146.135.005.251.05.348.138.098.089.175.22.232.394.055.175.091.38.103.617.004.042.005.093.005.158v.387a4.489 4.489 0 01-.112.898 3.012 3.012 0 01-.228.654 2.59 2.59 0 01-.348.544c-.135.16-.291.29-.465.391-.176.101-.331.15-.466.148a.537.537 0 01-.349-.14.914.914 0 01-.23-.389 2.394 2.394 0 01-.105-.62 5.705 5.705 0 01-.01-.341c0-.067.002-.132.004-.196a4.117 4.117 0 01.111-.902c.057-.238.133-.458.23-.66.097-.2.214-.381.349-.542.135-.162.29-.292.466-.393zm.706 1.921a4.586 4.586 0 000-.627c-.01-.143-.03-.27-.063-.382a.62.62 0 00-.135-.258.321.321 0 00-.213-.102.555.555 0 00-.295.09c-.114.066-.212.15-.296.252a1.642 1.642 0 00-.213.348 2.132 2.132 0 00-.135.414 3.114 3.114 0 00-.063.455 4.354 4.354 0 000 .627c.01.145.03.271.063.382a.635.635 0 00.135.258c.058.061.129.095.213.102a.521.521 0 00.296-.09c.114-.065.211-.148.295-.252.083-.104.155-.22.213-.348.059-.126.103-.265.135-.413.033-.148.054-.3.063-.456zM213.668 95.915l.542-2.812a.799.799 0 01.055-.15.28.28 0 01.112-.124l.159-.091c.033-.02.06-.018.081.003.025.023.034.058.034.108a.46.46 0 01-.004.063l-.742 3.868a.967.967 0 01-.051.179.222.222 0 01-.095.114l-.149.086c-.043.025-.074.022-.094-.008a.434.434 0 01-.056-.114l-.577-2.148-.578 2.816a1.253 1.253 0 01-.055.178.23.23 0 01-.095.12l-.149.085c-.043.026-.074.023-.095-.005a.377.377 0 01-.05-.121l-.743-3.008c-.002-.02-.004-.038-.004-.058 0-.05.012-.098.034-.147a.235.235 0 01.081-.1l.161-.091c.048-.028.084-.03.111-.005a.2.2 0 01.054.088l.542 2.182.582-2.83a.981.981 0 01.047-.149.238.238 0 01.104-.119l.106-.062c.048-.026.083-.027.105 0 .021.027.036.059.045.091l.582 2.161zM215.685 91.28c0 .055-.016.11-.04.166a.244.244 0 01-.092.113l-.276.16c-.036.02-.067.02-.093-.006-.025-.026-.038-.067-.038-.121v-.425c0-.055.014-.112.038-.166a.247.247 0 01.093-.112l.276-.16c.036-.02.067-.02.092.006.026.025.04.066.04.12v.425zm-.05 4.507a.405.405 0 01-.038.164.247.247 0 01-.092.114l-.179.103c-.037.02-.067.018-.092-.007-.027-.026-.04-.065-.04-.12v-3.483c0-.054.013-.109.04-.166a.228.228 0 01.092-.111l.179-.104c.036-.021.067-.02.092.005.026.027.038.067.038.122v3.483zM218.603 94.07c0 .055-.016.11-.04.165a.248.248 0 01-.092.114l-.179.103c-.035.02-.067.018-.092-.007-.026-.025-.038-.065-.038-.119v-1.973c0-.384-.06-.635-.18-.757-.12-.121-.288-.119-.5.005a1.257 1.257 0 00-.491.568c-.125.262-.187.585-.187.968v1.975a.398.398 0 01-.038.164.27.27 0 01-.091.113l-.181.103c-.035.022-.067.02-.091-.006-.026-.025-.039-.065-.039-.119v-3.484c0-.054.013-.108.039-.165a.242.242 0 01.091-.113l.181-.104c.034-.021.066-.019.091.007.025.026.038.066.038.12v.233c.063-.161.153-.33.275-.505.122-.178.281-.324.478-.438a.817.817 0 01.42-.129c.129.003.24.05.334.138a.893.893 0 01.216.4c.05.18.078.398.078.659v2.084h-.002zM219.184 91.746c.01-.278.043-.545.101-.8.059-.251.135-.481.234-.689.097-.209.211-.392.341-.552.131-.155.273-.28.424-.366.2-.115.36-.155.48-.118.12.037.21.101.272.19v-.233c0-.054.012-.109.038-.163a.247.247 0 01.092-.114l.181-.104c.034-.02.065-.019.09.007.026.026.038.065.038.12v3.633c0 .517-.094.984-.286 1.401-.19.416-.477.735-.858.957-.193.111-.359.17-.498.18a.556.556 0 01-.338-.077.502.502 0 01-.199-.241.92.92 0 01-.072-.332.336.336 0 01.037-.163.255.255 0 01.093-.114l.146-.083c.035-.02.065-.025.089-.01.024.012.048.052.071.119a.874.874 0 00.046.094.24.24 0 00.101.095.32.32 0 00.184.027.771.771 0 00.289-.111 1.549 1.549 0 00.537-.522c.068-.113.12-.242.158-.39.037-.146.056-.31.056-.487v-.472a2.308 2.308 0 01-.277.513c-.12.174-.279.315-.475.43a.77.77 0 01-.424.122.507.507 0 01-.341-.153 1.016 1.016 0 01-.234-.423 2.634 2.634 0 01-.101-.68 4.554 4.554 0 01-.005-.243c.005-.089.006-.17.01-.248zm1.852-1.093c-.01-.347-.08-.58-.206-.698-.129-.118-.293-.12-.497-.002-.213.124-.381.327-.504.606-.123.281-.189.604-.202.972-.003.14-.003.28 0 .417.013.35.08.597.202.734.124.14.291.145.504.023.204-.118.369-.309.497-.578.127-.268.196-.58.206-.934.002-.077.005-.167.005-.272 0-.106-.003-.193-.005-.268zM74.762 132.027a.871.871 0 01-.61-.246l-3.793-3.656a.886.886 0 01-.187-1.012l3.793-8.043a.884.884 0 011.174-.421c.44.209.628.734.42 1.175l-3.522 7.47 3.337 3.217a.882.882 0 01-.612 1.516zM205.693 49.017c.726-.42 1.315-.08 1.315.76s-.589 1.86-1.315 2.28c-.726.42-1.315.08-1.315-.76.001-.84.59-1.861 1.315-2.28zM209.51 46.81c.727-.42 1.315-.08 1.315.76s-.588 1.86-1.315 2.28c-.726.42-1.315.08-1.315-.76s.589-1.86 1.315-2.28zM213.327 44.604c.726-.42 1.315-.08 1.315.76s-.589 1.86-1.315 2.28c-.727.42-1.315.08-1.315-.76s.588-1.86 1.315-2.28zM180.379 137.925l32.636-18.87c.906-.523 1.641-.098 1.641.949v.297c0 1.048-.734 2.323-1.641 2.846l-32.636 18.87c-.906.524-1.641.099-1.641-.949v-.297c0-1.049.734-2.322 1.641-2.846z" fill="#455A64"/><path d="M174.427 149.128l44.539-25.776c.906-.524 1.641-.099 1.641.949v.297c0 1.048-.734 2.323-1.641 2.846l-44.539 25.778c-.907.524-1.641.099-1.641-.949v-.297c0-1.049.735-2.324 1.641-2.848zM180.379 153.421l32.636-18.87c.906-.523 1.641-.098 1.641.949v.297c0 1.048-.734 2.323-1.641 2.847l-32.636 18.869c-.906.524-1.641.099-1.641-.949v-.297c0-1.049.734-2.322 1.641-2.846zM174.427 164.623l44.539-25.777c.906-.523 1.641-.098 1.641.949v.297c0 1.048-.734 2.323-1.641 2.846l-44.539 25.778c-.907.524-1.641.099-1.641-.949v-.297c0-1.049.735-2.324 1.641-2.847z" fill="#EBEBEB"/><path d="M199.214 190.148c-.421 0-.816-.101-1.17-.305-.822-.475-1.277-1.425-1.278-2.675v-10.21c0-2.334 1.58-5.075 3.598-6.24l10.014-5.79c1.079-.624 2.132-.707 2.953-.231.824.477 1.277 1.427 1.277 2.675v10.21c0 2.334-1.58 5.075-3.599 6.24l-10.013 5.79c-.616.358-1.221.536-1.782.536zm12.946-24.487c-.338 0-.735.123-1.151.362l-10.013 5.789c-1.608.929-2.967 3.287-2.967 5.145v10.21c0 .766.235 1.343.647 1.58.409.235 1.025.151 1.688-.231l10.014-5.789c1.608-.929 2.967-3.287 2.967-5.145v-10.21c0-.766-.235-1.342-.645-1.58a1.07 1.07 0 00-.54-.131z" fill="#E0E0E0"/><path d="M205.604 180.266a.43.43 0 01-.302-.122l-2.843-2.742a.435.435 0 11.603-.63l2.407 2.32 2.584-5.479a.438.438 0 01.79.373l-2.845 6.03a.438.438 0 01-.394.25z" fill="#455A64"/><path d="M139.488 224.68c-.421 0-.815-.101-1.17-.306-.822-.476-1.277-1.427-1.277-2.676v-10.209c0-2.333 1.58-5.074 3.599-6.24l39.615-22.904c1.079-.624 2.129-.71 2.953-.231.823.475 1.278 1.427 1.278 2.675v10.21c0 2.333-1.581 5.075-3.599 6.24l-39.616 22.905c-.616.356-1.224.536-1.783.536zm1.783-18.337c-1.608.93-2.967 3.286-2.967 5.145v10.209c0 .768.236 1.344.646 1.58.41.238 1.027.153 1.69-.23l39.615-22.904c1.608-.928 2.967-3.286 2.967-5.144v-10.21c0-.767-.236-1.342-.645-1.58-.415-.239-1.027-.153-1.69.23l-39.616 22.904z" fill="#E0E0E0"/><path d="M151.065 208.317l1.09-3.552.078-.188a.391.391 0 01.169-.195l.391-.227c.042-.023.077-.02.109.01.03.028.047.076.047.14v5.719a.458.458 0 01-.047.195.273.273 0 01-.109.133l-.466.269c-.04.026-.077.023-.108-.007-.031-.031-.046-.077-.046-.142v-3.461l-.746 2.425a2.357 2.357 0 01-.08.191.342.342 0 01-.134.152l-.297.173c-.054.031-.098.032-.132 0a.36.36 0 01-.081-.099l-.747-1.56v3.46a.46.46 0 01-.045.197.277.277 0 01-.11.132l-.465.27c-.042.023-.08.021-.11-.008-.029-.03-.045-.077-.045-.141v-5.719c0-.067.016-.132.045-.195a.278.278 0 01.11-.134l.392-.227c.077-.044.132-.044.169 0l.078.096 1.09 2.293zM153.644 207.561c0-.33.031-.66.097-.99.064-.329.158-.638.282-.923.123-.288.27-.543.445-.768.175-.225.369-.397.583-.521.214-.126.409-.178.583-.156a.7.7 0 01.446.229c.123.133.218.317.284.554.067.237.102.503.102.806v.397a.47.47 0 01-.046.194.292.292 0 01-.11.135l-1.919 1.109a.83.83 0 00.055.327c.035.082.084.14.146.175a.31.31 0 00.212.038.673.673 0 00.247-.089 1.248 1.248 0 00.487-.486c.043-.074.077-.125.104-.157a.357.357 0 01.109-.091l.459-.264c.042-.026.08-.025.113.006.031.028.047.074.041.143a1.333 1.333 0 01-.088.369 2.86 2.86 0 01-.249.526 3.509 3.509 0 01-.41.556 2.263 2.263 0 01-.566.459c-.214.124-.408.178-.583.164a.638.638 0 01-.445-.234c-.124-.141-.218-.34-.282-.595a3.73 3.73 0 01-.097-.913zm1.405-2.141a1.042 1.042 0 00-.284.239 1.676 1.676 0 00-.322.646 1.967 1.967 0 00-.054.31l1.297-.75a1.728 1.728 0 00-.043-.254.46.46 0 00-.103-.206.272.272 0 00-.189-.085c-.078-.004-.178.029-.302.1zM158.715 205.614c0-.067-.013-.112-.039-.137-.026-.025-.074-.038-.141-.033a1.357 1.357 0 00-.267.048l-.425.104a.994.994 0 01-.419.021.471.471 0 01-.267-.155.67.67 0 01-.141-.322 2.482 2.482 0 01-.04-.468c0-.177.027-.366.081-.569a2.777 2.777 0 01.602-1.128c.146-.167.312-.304.499-.413.187-.107.355-.173.502-.192a.677.677 0 01.376.039.513.513 0 01.242.228.865.865 0 01.098.364.385.385 0 01-.044.193.29.29 0 01-.113.135l-.442.256c-.056.032-.101.041-.128.025a.769.769 0 01-.095-.057.274.274 0 00-.138-.03c-.058 0-.144.034-.259.1a1.137 1.137 0 00-.303.255.546.546 0 00-.133.361c0 .064.012.113.032.145.021.029.061.048.121.048.06.001.14-.009.247-.03.104-.023.242-.057.41-.101.34-.084.581-.047.72.111.14.158.21.414.21.768 0 .177-.029.365-.085.566a2.86 2.86 0 01-.653 1.149 2.258 2.258 0 01-.536.43 1.355 1.355 0 01-.538.2.69.69 0 01-.394-.061.553.553 0 01-.246-.255.87.87 0 01-.091-.381.359.359 0 01.043-.192.29.29 0 01.111-.136l.443-.255c.059-.033.1-.037.129-.014l.098.086a.236.236 0 00.151.052c.065.005.163-.029.293-.106.058-.032.116-.074.178-.122a1.028 1.028 0 00.3-.336.402.402 0 00.051-.191zM161.7 203.887c0-.065-.013-.111-.039-.135-.027-.025-.075-.038-.14-.034-.069.004-.157.02-.268.049-.111.027-.253.063-.425.104a1.008 1.008 0 01-.419.02.466.466 0 01-.267-.155.68.68 0 01-.141-.322 2.393 2.393 0 01-.041-.467c0-.178.027-.366.081-.57a2.85 2.85 0 01.604-1.127c.144-.168.311-.304.5-.413.186-.108.354-.173.502-.192a.661.661 0 01.376.039.496.496 0 01.24.228.86.86 0 01.099.363.375.375 0 01-.043.194.304.304 0 01-.113.134l-.442.257c-.057.031-.099.041-.129.025-.027-.015-.06-.033-.094-.056a.262.262 0 00-.138-.03c-.057 0-.143.034-.258.101a1.13 1.13 0 00-.304.256.54.54 0 00-.131.359c0 .066.01.114.031.145.022.031.061.05.121.05.059.001.141-.01.247-.032.103-.023.241-.057.409-.1.341-.085.581-.048.721.11.139.158.209.415.209.768 0 .178-.029.367-.085.568-.058.2-.14.4-.249.596-.11.195-.244.38-.403.551a2.288 2.288 0 01-.537.43 1.365 1.365 0 01-.536.199.682.682 0 01-.395-.06.553.553 0 01-.246-.255.892.892 0 01-.092-.382.37.37 0 01.043-.192.291.291 0 01.112-.136l.444-.254c.057-.034.099-.037.129-.014.029.024.061.053.097.085a.246.246 0 00.153.053c.064.005.163-.03.291-.106.059-.033.118-.074.179-.122.061-.046.118-.1.17-.154a.986.986 0 00.129-.181.47.47 0 00.048-.195zM163.062 200.946a2.9 2.9 0 01.715-1.514 2.08 2.08 0 01.513-.418c.195-.112.372-.176.529-.185a.557.557 0 01.404.117c.114.086.2.231.262.427.061.198.092.448.092.749v2.604c0 .065-.017.13-.046.196a.288.288 0 01-.111.132l-.436.252c-.043.026-.079.023-.108-.007-.031-.029-.047-.078-.047-.143v-.291c-.08.22-.196.432-.347.64a1.821 1.821 0 01-.578.516c-.164.094-.31.145-.442.153a.444.444 0 01-.327-.099.703.703 0 01-.205-.321 1.647 1.647 0 01-.072-.511c0-.407.095-.781.282-1.12.188-.339.44-.64.753-.904l.936-.788c0-.242-.052-.385-.154-.425-.104-.039-.233-.018-.387.072a.773.773 0 00-.223.191 1.707 1.707 0 00-.154.258.894.894 0 01-.095.152.37.37 0 01-.096.083l-.534.309c-.038.023-.071.023-.096.003-.026-.022-.036-.064-.028-.128zm.96 1.944a1.42 1.42 0 00.347-.286c.103-.114.187-.24.255-.373a1.82 1.82 0 00.208-.801v-.088l-.781.664a1.5 1.5 0 00-.34.378.763.763 0 00-.102.383c0 .124.04.191.122.204.082.01.18-.016.291-.081zM167.647 202.654c.081-.047.163-.114.246-.2.083-.086.16-.193.23-.314a1.89 1.89 0 00.236-.898v-.328a3.02 3.02 0 01-.121.243c-.049.091-.11.184-.181.277a2.6 2.6 0 01-.246.277 1.763 1.763 0 01-.32.238c-.19.111-.364.153-.519.127a.65.65 0 01-.397-.232 1.4 1.4 0 01-.258-.514 2.825 2.825 0 01-.107-.723 8.46 8.46 0 010-.62c.008-.274.043-.557.107-.845a4.54 4.54 0 01.258-.813 3.27 3.27 0 01.397-.69c.155-.205.329-.363.519-.473.119-.068.226-.112.32-.133a.72.72 0 01.246-.01.547.547 0 01.302.172v-.203c0-.065.015-.131.046-.195a.295.295 0 01.109-.133l.438-.252c.041-.024.078-.023.108.008.032.029.047.077.047.14v4.153c0 .714-.13 1.328-.389 1.841-.258.512-.615.9-1.071 1.163a1.353 1.353 0 01-.543.195.757.757 0 01-.435-.069.69.69 0 01-.292-.282.96.96 0 01-.121-.448.377.377 0 01.043-.194.304.304 0 01.111-.133l.392-.227c.054-.029.099-.029.137.005.038.033.071.067.098.098.05.071.118.114.203.131.087.011.224-.033.407-.139zm-.69-3.036c-.013.17-.013.336 0 .496.024.37.098.602.23.695.131.091.29.085.476-.022.188-.109.346-.288.475-.532a2.1 2.1 0 00.221-.864 4.056 4.056 0 000-.673c-.019-.294-.092-.494-.221-.598-.129-.104-.287-.101-.475.008-.187.108-.346.284-.476.528-.13.244-.206.563-.23.962zM169.747 198.251a5.044 5.044 0 01.379-1.913c.124-.288.272-.542.447-.767.175-.224.368-.4.583-.522.214-.124.408-.176.582-.156a.704.704 0 01.447.23c.121.133.216.319.284.554.067.235.1.504.1.806v.397a.467.467 0 01-.045.195.285.285 0 01-.109.133l-1.92 1.109c0 .136.019.244.055.328.036.082.085.14.146.177a.336.336 0 00.213.037.74.74 0 00.247-.089 1.31 1.31 0 00.486-.487c.043-.073.078-.125.103-.158a.386.386 0 01.11-.089l.459-.267c.043-.025.081-.022.112.008.032.028.047.076.043.143a1.513 1.513 0 01-.088.371c-.056.16-.139.336-.25.523a3.572 3.572 0 01-.41.556 2.284 2.284 0 01-.565.461c-.215.124-.408.179-.583.164a.648.648 0 01-.447-.234c-.122-.141-.216-.339-.28-.595a3.744 3.744 0 01-.099-.915zm1.407-2.142a1.052 1.052 0 00-.285.239 1.672 1.672 0 00-.321.647 1.952 1.952 0 00-.056.312l1.299-.752a1.954 1.954 0 00-.043-.254.452.452 0 00-.104-.205.262.262 0 00-.188-.086c-.078-.004-.179.029-.302.099z" fill="#455A64"/><path d="M81.231 240.325l39.616-22.905c1.813-1.047 3.282-.198 3.282 1.898v10.209c0 2.096-1.469 4.645-3.282 5.693l-39.616 22.905c-1.813 1.048-3.282.198-3.282-1.898v-10.209c0-2.097 1.47-4.645 3.282-5.693z" fill="#0085FF"/><path d="M85.798 241.848c.06-.033.11-.031.153.011.043.042.065.109.065.2v1.317a.631.631 0 01-.065.272.404.404 0 01-.153.187l-2.41 1.394v1.703l2.248-1.299c.06-.035.112-.031.153.011.043.04.065.107.065.199v1.316a.64.64 0 01-.065.274.388.388 0 01-.153.186l-2.248 1.3v2.683a.638.638 0 01-.064.274.416.416 0 01-.152.188l-1.056.609c-.06.035-.111.032-.154-.01-.042-.042-.065-.109-.065-.2v-8.025c0-.091.023-.18.065-.272a.404.404 0 01.154-.189l3.682-2.129zM90.923 243.881c.006.121.008.279.008.473 0 .195-.002.355-.008.483a5.48 5.48 0 01-.177 1.221c-.109.41-.255.801-.445 1.17a4.912 4.912 0 01-.68 1.009 3.6 3.6 0 01-.891.739c-.327.189-.623.285-.89.291a1.03 1.03 0 01-.682-.221c-.187-.152-.334-.372-.443-.658a3.164 3.164 0 01-.177-1.017 9.561 9.561 0 01-.009-.473c0-.194.003-.354.01-.484a5.05 5.05 0 01.168-1.215 5.76 5.76 0 01.448-1.173c.19-.37.418-.709.684-1.017.267-.307.562-.555.89-.745.328-.188.625-.285.891-.285.264 0 .494.075.685.226.19.15.337.369.442.657.108.288.164.627.176 1.019zm-2.935 2.589c.017.306.09.509.224.612.131.102.303.09.518-.034.215-.124.389-.312.52-.566.132-.256.205-.544.221-.868.012-.129.017-.273.017-.432 0-.156-.005-.294-.017-.413-.016-.304-.088-.509-.22-.61-.132-.101-.306-.09-.521.034a1.339 1.339 0 00-.518.566 2.084 2.084 0 00-.224.867 5.661 5.661 0 000 .844zM93.171 245.947a.658.658 0 01-.064.274.421.421 0 01-.154.188l-1.016.588c-.058.033-.11.029-.153-.012-.043-.04-.064-.107-.064-.198v-8.15c0-.089.021-.181.064-.274a.413.413 0 01.153-.186l1.016-.588c.059-.034.11-.029.154.01.041.042.064.109.064.2v8.148zM95.596 244.546a.656.656 0 01-.063.274.436.436 0 01-.154.189l-1.016.585c-.06.034-.11.031-.153-.01-.043-.042-.066-.109-.066-.2v-8.147c0-.091.023-.184.066-.275a.409.409 0 01.153-.187l1.016-.586c.06-.034.11-.03.154.01.041.042.063.109.063.198v8.149zM100.777 238.184c.006.121.008.279.008.473 0 .195-.002.355-.008.483-.012.404-.07.811-.178 1.221-.108.41-.255.801-.443 1.17a4.917 4.917 0 01-.68 1.009 3.595 3.595 0 01-.891.739c-.329.189-.624.285-.891.29a1.022 1.022 0 01-.68-.222c-.19-.151-.337-.372-.445-.657a3.202 3.202 0 01-.177-1.017 9.49 9.49 0 01-.01-.474c0-.193.003-.354.01-.483a5.05 5.05 0 01.169-1.215c.107-.41.256-.801.447-1.173.19-.371.42-.71.685-1.017.266-.307.562-.554.89-.745.329-.189.624-.285.89-.285s.495.075.686.225c.189.151.338.37.443.658.107.289.164.628.175 1.02zm-2.933 2.589c.017.306.089.509.223.612.131.102.304.09.519-.034.215-.124.388-.312.519-.566.131-.256.206-.544.222-.868a5.531 5.531 0 000-.845c-.016-.304-.09-.509-.222-.61-.131-.101-.304-.09-.52.034a1.341 1.341 0 00-.518.566 2.085 2.085 0 00-.223.867 5.107 5.107 0 000 .844zM104.829 233.083c.08-.046.143-.05.185-.008a.303.303 0 01.088.148l.596 2.475.598-3.165a1.17 1.17 0 01.087-.25.45.45 0 01.186-.206l.999-.579c.053-.029.098-.029.136.008.037.037.057.096.057.18a.742.742 0 01-.009.103l-1.282 6.495a1.21 1.21 0 01-.083.259.44.44 0 01-.181.204l-.919.531c-.08.046-.141.048-.179.004a.54.54 0 01-.088-.161l-.571-2.278-.572 2.94a1.93 1.93 0 01-.089.262.408.408 0 01-.178.202l-.918.53c-.081.047-.14.048-.182.006a.347.347 0 01-.083-.163l-1.284-5.01a.573.573 0 01.05-.338.358.358 0 01.136-.166l.999-.578c.081-.047.142-.049.185-.009.043.042.073.09.088.147l.598 2.476.596-3.165c.016-.076.045-.159.088-.25a.446.446 0 01.185-.205l.761-.439zM109.899 229.134a.627.627 0 01-.065.272.395.395 0 01-.154.188l-1.015.588c-.059.033-.11.03-.152-.011-.044-.041-.066-.108-.066-.199v-1.255c0-.091.022-.181.066-.273a.39.39 0 01.152-.186l1.015-.588c.061-.035.11-.031.154.01.043.042.065.109.065.2v1.254zm0 7.143a.64.64 0 01-.065.274.407.407 0 01-.154.187l-1.015.586c-.059.034-.11.03-.152-.01-.044-.042-.066-.109-.066-.2v-5.789c0-.091.022-.18.066-.273a.39.39 0 01.152-.186l1.015-.588c.061-.034.11-.03.154.01.043.042.065.109.065.2v5.789zM115.169 233.229a.643.643 0 01-.065.275.426.426 0 01-.153.188l-1.014.587c-.061.034-.113.031-.155-.011-.042-.041-.064-.108-.064-.199v-3.143c0-.355-.057-.607-.169-.76-.114-.149-.291-.154-.532-.015a1.206 1.206 0 00-.528.627 2.59 2.59 0 00-.166.953v3.142a.657.657 0 01-.064.275.41.41 0 01-.154.188l-1.016.588c-.058.033-.11.029-.153-.011-.042-.041-.064-.108-.064-.199v-5.788c0-.091.022-.184.064-.275a.412.412 0 01.153-.187l.976-.563c.059-.034.109-.031.152.01.042.042.065.109.065.2v.285c.043-.108.097-.225.161-.353.065-.129.142-.254.234-.378.091-.123.197-.242.318-.358.122-.116.262-.219.424-.312.257-.149.494-.23.71-.241a.706.706 0 01.55.195c.154.143.273.369.359.674.085.306.13.704.13 1.193v3.413h.001zM118.092 232.743c.205-.117.385-.293.541-.529.156-.235.235-.498.235-.788v-.87c-.05.12-.101.239-.158.358-.056.12-.126.238-.21.357a2.244 2.244 0 01-.304.35 2.549 2.549 0 01-.447.328c-.242.138-.47.215-.685.229a.773.773 0 01-.565-.19c-.16-.137-.292-.352-.391-.644-.099-.29-.153-.668-.165-1.133a10.762 10.762 0 010-.883c.012-.478.066-.922.165-1.332.099-.41.231-.773.391-1.096.162-.32.349-.602.565-.841.215-.24.443-.43.685-.57.176-.102.329-.166.458-.19a.79.79 0 01.331-.005.502.502 0 01.225.111.898.898 0 01.145.158v-.284a.63.63 0 01.066-.275.403.403 0 01.153-.188l.934-.541c.059-.032.11-.03.152.012.043.042.064.106.064.197v6.051c0 .464-.054.903-.164 1.319-.11.415-.261.797-.455 1.143a4.244 4.244 0 01-.693.93c-.268.271-.563.5-.887.686-.418.241-.76.359-1.027.35-.266-.006-.475-.082-.625-.221a1.115 1.115 0 01-.313-.534 2.452 2.452 0 01-.098-.589.551.551 0 01.061-.272.443.443 0 01.158-.19l1.047-.606c.113-.065.196-.029.249.104a.349.349 0 00.174.184c.076.043.206.01.388-.096zm-.707-4.125a3.559 3.559 0 00-.017.315c0 .077.005.176.017.294.016.282.081.483.197.605.116.127.29.119.528-.017.221-.129.388-.319.503-.572.116-.252.187-.507.213-.764a3.783 3.783 0 000-.782c-.021-.227-.091-.397-.21-.512-.118-.113-.286-.108-.506.021a1.255 1.255 0 00-.524.582 2.23 2.23 0 00-.201.83z" fill="#FAFAFA"/><path d="M116.016 270.476c-1.046 0-2.015-.245-2.875-.744-2.06-1.19-3.195-3.651-3.195-6.926 0-6.488 4.565-14.405 10.177-17.648 2.836-1.64 5.53-1.886 7.589-.694 2.06 1.191 3.195 3.651 3.195 6.926 0 6.488-4.566 14.406-10.177 17.649-1.652.955-3.256 1.437-4.714 1.437zm8.817-25.537c-1.244 0-2.641.426-4.103 1.271-5.276 3.05-9.569 10.496-9.569 16.595 0 2.822.919 4.908 2.588 5.872 1.668.962 3.931.719 6.374-.693 5.276-3.05 9.568-10.495 9.568-16.595 0-2.822-.918-4.908-2.587-5.873-.67-.385-1.436-.577-2.271-.577z" fill="#E0E0E0"/><path d="M120.889 248.086c4.15-2.282 7.307-.096 7.051 4.881-.256 4.978-3.827 10.863-7.978 13.144-4.15 2.282-7.306.096-7.051-4.882.256-4.978 3.829-10.862 7.978-13.143z" fill="#EBEBEB"/><path d="M120.34 251.51c1.067-.617 1.934-.116 1.934 1.117 0 1.234-.865 2.737-1.934 3.354-1.067.617-1.933.116-1.933-1.118 0-1.235.866-2.735 1.933-3.353zM124.151 258.579c0-2.029-1.422-2.929-3.176-1.915l-1.096.633c-1.755 1.015-3.176 3.481-3.176 5.509v.545s.749 1.544 3.725-.218 3.724-4.085 3.724-4.085v-.469h-.001z" fill="#fff"/><path d="M143.409 254.568c-1.046 0-2.015-.247-2.875-.744-2.061-1.19-3.195-3.651-3.195-6.926 0-6.488 4.565-14.405 10.176-17.649 2.836-1.639 5.53-1.886 7.589-.693 2.061 1.191 3.195 3.651 3.195 6.926 0 6.488-4.565 14.405-10.176 17.649-1.652.956-3.257 1.437-4.714 1.437zm8.817-25.536c-1.245 0-2.642.426-4.103 1.271-5.277 3.05-9.569 10.496-9.569 16.595 0 2.822.918 4.908 2.587 5.872 1.669.962 3.931.719 6.374-.693 5.277-3.05 9.569-10.495 9.569-16.595 0-2.822-.918-4.908-2.587-5.873-.67-.385-1.435-.577-2.271-.577z" fill="#E0E0E0"/><path d="M148.282 232.178c4.149-2.282 7.306-.096 7.051 4.881-.257 4.978-3.828 10.863-7.977 13.143-4.15 2.282-7.307.096-7.052-4.881.256-4.977 3.828-10.861 7.978-13.143z" fill="#EBEBEB"/><path d="M147.734 235.602c1.067-.617 1.934-.116 1.934 1.117 0 1.234-.866 2.736-1.934 3.354-1.068.617-1.934.116-1.934-1.119 0-1.234.865-2.734 1.934-3.352zM151.544 242.671c0-2.029-1.423-2.929-3.176-1.916l-1.097.634c-1.754 1.015-3.175 3.481-3.175 5.509v.547s.749 1.542 3.725-.219c2.975-1.762 3.724-4.085 3.724-4.085v-.47h-.001z" fill="#fff"/><path d="M170.8 238.661c-1.046 0-2.015-.247-2.875-.744-2.06-1.191-3.195-3.651-3.195-6.926 0-6.488 4.566-14.405 10.177-17.649 2.836-1.639 5.53-1.886 7.589-.693 2.06 1.19 3.195 3.651 3.195 6.926 0 6.488-4.565 14.405-10.177 17.649-1.651.955-3.255 1.437-4.714 1.437zm8.819-25.538c-1.245 0-2.642.427-4.103 1.272-5.277 3.05-9.569 10.495-9.569 16.595 0 2.822.918 4.908 2.587 5.872 1.669.961 3.931.718 6.374-.693 5.276-3.05 9.569-10.496 9.569-16.596 0-2.822-.919-4.908-2.587-5.873-.671-.383-1.436-.577-2.271-.577z" fill="#E0E0E0"/><path d="M175.675 216.271c4.15-2.282 7.306-.097 7.051 4.881-.256 4.978-3.827 10.862-7.977 13.143-4.149 2.282-7.306.096-7.051-4.881.255-4.978 3.826-10.861 7.977-13.143z" fill="#EBEBEB"/><path d="M175.125 219.695c1.068-.617 1.934-.116 1.934 1.117 0 1.235-.865 2.736-1.934 3.353-1.067.618-1.934.117-1.934-1.118 0-1.234.867-2.735 1.934-3.352zM178.935 226.763c0-2.029-1.422-2.928-3.176-1.915l-1.096.634c-1.753 1.014-3.176 3.481-3.176 5.509v.546s.749 1.542 3.725-.219c2.975-1.762 3.724-4.084 3.724-4.084v-.471h-.001z" fill="#fff"/><path d="M198.193 222.752c-1.046 0-2.015-.246-2.875-.743-2.061-1.191-3.195-3.651-3.195-6.926 0-6.488 4.565-14.406 10.176-17.649 2.836-1.639 5.531-1.886 7.59-.693 2.06 1.19 3.194 3.651 3.194 6.926 0 6.488-4.565 14.405-10.176 17.648-1.651.957-3.255 1.437-4.714 1.437zm8.818-25.536c-1.244 0-2.641.427-4.103 1.272-5.276 3.05-9.568 10.495-9.568 16.595 0 2.822.918 4.908 2.587 5.872 1.668.961 3.931.718 6.374-.693 5.276-3.05 9.568-10.496 9.568-16.595 0-2.823-.918-4.909-2.587-5.874-.67-.384-1.436-.577-2.271-.577z" fill="#E0E0E0"/><path d="M203.068 200.364c4.149-2.282 7.306-.096 7.051 4.882-.257 4.977-3.828 10.862-7.977 13.143-4.15 2.282-7.307.096-7.051-4.882.255-4.977 3.827-10.862 7.977-13.143z" fill="#EBEBEB"/><path d="M202.518 203.788c1.067-.618 1.934-.117 1.934 1.117 0 1.233-.865 2.736-1.934 3.353-1.067.617-1.934.117-1.934-1.118s.867-2.736 1.934-3.352zM206.328 210.856c0-2.029-1.423-2.928-3.176-1.915l-1.096.634c-1.755 1.014-3.176 3.481-3.176 5.509v.546s.749 1.542 3.725-.219c2.975-1.762 3.724-4.084 3.724-4.084v-.471h-.001z" fill="#fff"/><path d="M88.387 286.384c-1.046 0-2.015-.245-2.875-.744-2.06-1.19-3.195-3.65-3.195-6.925 0-6.488 4.566-14.406 10.177-17.649 2.836-1.64 5.53-1.886 7.589-.693 2.06 1.19 3.195 3.65 3.195 6.925 0 6.488-4.566 14.406-10.177 17.649-1.65.955-3.255 1.437-4.714 1.437zm8.818-25.537c-1.244 0-2.64.426-4.102 1.271-5.277 3.05-9.57 10.496-9.57 16.595 0 2.823.92 4.909 2.588 5.872 1.669.962 3.93.719 6.374-.693 5.276-3.05 9.569-10.495 9.569-16.595 0-2.822-.919-4.908-2.587-5.873-.671-.383-1.437-.577-2.272-.577z" fill="#E0E0E0"/><path d="M93.262 263.994c4.15-2.282 7.306-.096 7.051 4.882-.256 4.977-3.827 10.862-7.977 13.143-4.15 2.282-7.306.096-7.051-4.882.255-4.977 3.827-10.861 7.977-13.143z" fill="#EBEBEB"/><path d="M92.713 267.419c1.067-.618 1.934-.117 1.934 1.118 0 1.234-.865 2.736-1.934 3.353-1.067.618-1.933.117-1.933-1.118s.866-2.736 1.933-3.353zM96.522 274.487c0-2.029-1.422-2.928-3.176-1.915l-1.096.634c-1.755 1.014-3.176 3.481-3.176 5.508v.547s.75 1.542 3.725-.219c2.975-1.762 3.724-4.084 3.724-4.084v-.471z" fill="#fff"/><path d="M83.967 293.008l17.79-10.286c.755-.436 1.368-.126 1.368.693 0 .82-.613 1.838-1.368 2.275l-17.79 10.285c-.755.437-1.366.127-1.366-.693-.002-.82.611-1.838 1.366-2.274zM111.532 277.083l17.789-10.286c.756-.436 1.369-.126 1.369.694 0 .819-.613 1.838-1.369 2.274l-17.789 10.285c-.756.437-1.367.127-1.367-.693-.001-.819.611-1.838 1.367-2.274zM138.924 261.199l17.789-10.285c.756-.437 1.368-.127 1.368.693 0 .819-.612 1.838-1.368 2.274l-17.789 10.286c-.756.436-1.368.126-1.368-.694 0-.819.612-1.838 1.368-2.274zM166.316 245.393l17.79-10.285c.755-.436 1.368-.127 1.368.693s-.613 1.838-1.368 2.275l-17.79 10.285c-.755.436-1.367.126-1.367-.693 0-.82.612-1.838 1.367-2.275zM193.709 229.538l17.789-10.286c.756-.436 1.369-.126 1.369.694 0 .819-.613 1.838-1.369 2.274l-17.789 10.286c-.756.436-1.368.126-1.368-.694.001-.819.612-1.838 1.368-2.274z" fill="#E0E0E0"/><path d="M76.1 326.729a.474.474 0 01-.475-.475v-17.799c0-.17.09-.327.237-.411l15.395-8.899a.477.477 0 01.711.411v17.799c0 .17-.09.327-.237.411l-15.395 8.899a.47.47 0 01-.236.064zm.474-18.001v16.704l14.447-8.353v-16.704l-14.447 8.353z" fill="#455A64"/><path d="M81.233 323.762a.475.475 0 01-.474-.475l-.001-17.799a.474.474 0 11.947 0l.002 17.799a.475.475 0 01-.474.475zM86.364 320.797a.474.474 0 01-.474-.474l-.001-17.8a.474.474 0 11.947 0l.001 17.8a.474.474 0 01-.473.474z" fill="#455A64"/><path d="M76.1 314.863a.474.474 0 01-.236-.887l15.393-8.9a.475.475 0 01.474.824l-15.393 8.9a.48.48 0 01-.238.063zM76.1 320.739a.474.474 0 01-.236-.887l15.393-8.9a.475.475 0 01.474.824l-15.393 8.9a.48.48 0 01-.238.063zM138.759 290.101c-.393 0-.763-.093-1.09-.284-.774-.447-1.199-1.348-1.199-2.539v-6.753c0-2.282 1.546-4.962 3.519-6.103l8.83-5.106c1.029-.594 2.021-.673 2.794-.23.772.447 1.197 1.349 1.197 2.539v6.754c0 2.28-1.546 4.961-3.518 6.102l-8.829 5.105c-.593.343-1.171.515-1.704.515zm11.76-20.348c-.365 0-.783.13-1.227.387l-8.829 5.105c-1.679.971-3.046 3.34-3.046 5.282v6.752c0 .837.258 1.448.725 1.717.466.27 1.123.186 1.847-.231l8.83-5.105c1.679-.972 3.044-3.341 3.044-5.281v-6.754c0-.836-.258-1.447-.724-1.718a1.25 1.25 0 00-.62-.154z" fill="#455A64"/><path d="M144.434 272.875a.47.47 0 01-.345-.149l-2.098-2.243a.474.474 0 11.691-.649l1.546 1.653 1.09-3.456a.473.473 0 11.903.287l-1.335 4.229a.473.473 0 01-.346.319.784.784 0 01-.106.009zM139.994 284.354a.473.473 0 01-.414-.704l3.297-5.955a.472.472 0 01.696-.151l2.795 2.073 2.5-4.812a.477.477 0 01.639-.203.475.475 0 01.202.641l-2.756 5.304a.469.469 0 01-.315.242.466.466 0 01-.387-.079l-2.809-2.082-3.034 5.481a.472.472 0 01-.414.245zM199.213 255.153c-.394 0-.763-.094-1.09-.285-.772-.448-1.197-1.347-1.197-2.539v-6.534c0-2.284 1.324-4.835 3.013-5.812l2.627-1.518 1.671-4.556a.473.473 0 01.864-.056l1.255 2.42 2.918-1.689c1.028-.594 2.022-.674 2.794-.23.772.448 1.197 1.349 1.197 2.54v6.536c0 2.281-1.546 4.962-3.518 6.103l-8.83 5.105c-.592.341-1.17.515-1.704.515zm5.542-19.908l-1.36 3.709a.468.468 0 01-.208.247l-2.775 1.604c-1.377.795-2.539 3.079-2.539 4.988v6.536c0 .838.257 1.448.724 1.717.467.267 1.122.188 1.847-.232l8.83-5.104c1.678-.971 3.044-3.34 3.044-5.281v-6.536c0-.838-.258-1.448-.724-1.718-.471-.269-1.127-.187-1.847.232l-3.346 1.935a.476.476 0 01-.657-.194l-.989-1.903z" fill="#455A64"/><path d="M201.861 254.02a.474.474 0 01-.473-.475v-1.905c0-1.222 1.065-2.795 2.424-3.581l2.671-1.546c.846-.485 1.654-.577 2.225-.249.436.252.674.713.674 1.3v1.905a.474.474 0 11-.947 0v-1.903c0-.242-.068-.401-.202-.48-.191-.112-.642-.117-1.276.251l-2.672 1.546c-1.057.609-1.95 1.873-1.95 2.758v1.906c0 .26-.212.473-.474.473zM204.308 246.463a1.6 1.6 0 01-.802-.21c-.562-.326-.873-.973-.873-1.82 0-1.564 1.06-3.402 2.411-4.185.734-.424 1.449-.478 2.013-.152.562.327.872.972.872 1.821 0 1.563-1.059 3.401-2.411 4.183-.417.24-.83.363-1.21.363zm1.944-5.625c-.214 0-.468.079-.734.234-1.051.607-1.938 2.145-1.938 3.361 0 .488.145.852.399.999.256.144.642.091 1.065-.153 1.051-.607 1.938-2.147 1.938-3.361 0-.488-.145-.853-.399-.999a.642.642 0 00-.331-.081zM86.37 395.314v7.413l-3.285 1.897v-2.846c0-1.252-.834-1.784-1.857-1.189-1.023.582-1.857 2.075-1.857 3.327v2.859l-3.271 1.897v-7.425l5.128-8.893 5.141 2.96zM110.23 384.985c-.489 0-.947-.118-1.355-.353-.96-.554-1.488-1.67-1.488-3.141 0-2.8 1.896-6.089 4.316-7.488 1.271-.737 2.5-.836 3.46-.281.96.556 1.488 1.67 1.488 3.141 0 2.8-1.896 6.089-4.316 7.487-.73.422-1.447.635-2.105.635zm3.573-10.352c-.436 0-.935.156-1.468.463-1.997 1.155-3.685 4.084-3.685 6.393 0 1 .303 1.726.856 2.046.551.316 1.331.219 2.197-.281 1.997-1.155 3.685-4.082 3.685-6.392 0-1-.305-1.727-.857-2.047a1.449 1.449 0 00-.728-.182z" fill="#455A64"/><path d="M117.578 383.865a.629.629 0 01-.335-.095l-3.058-1.909a.635.635 0 01-.202-.872.636.636 0 01.871-.203l3.058 1.909a.635.635 0 01.202.872.63.63 0 01-.536.298zM141.323 369.65c-.422 0-.816-.101-1.171-.306-.822-.475-1.277-1.425-1.277-2.674v-4.277c0-2.334 1.58-5.075 3.599-6.24l3.699-2.138c1.078-.625 2.129-.708 2.95-.231.824.476 1.279 1.425 1.279 2.675v4.277c0 2.333-1.581 5.073-3.598 6.24l-3.699 2.138c-.616.357-1.221.536-1.782.536zm6.632-14.905c-.34 0-.735.124-1.151.363l-3.699 2.138c-1.608.929-2.967 3.286-2.967 5.145v4.277c0 .767.235 1.343.646 1.58.41.234 1.025.153 1.69-.231l3.699-2.137c1.606-.93 2.965-3.288 2.965-5.145v-4.277c0-.767-.234-1.345-.645-1.581a1.094 1.094 0 00-.538-.132z" fill="#455A64"/><path d="M144.638 365.163a.632.632 0 01-.631-.632v-5.933a.633.633 0 111.263 0v5.933a.631.631 0 01-.632.632z" fill="#455A64"/><path d="M142.073 363.68a.63.63 0 01-.547-.316.63.63 0 01.231-.864l5.132-2.967a.628.628 0 01.863.232.63.63 0 01-.231.864l-5.132 2.966a.638.638 0 01-.316.085zM177.609 349.128a.653.653 0 01-.299-.075l-1.711-.922c-.152-.084-.322-.162-.495-.243-1.403-.652-3.45-1.602-3.162-4.95.196-2.286 1.667-4.632 3.347-5.343.783-.324 1.532-.265 2.112.131.472-1.017 1.147-1.896 1.905-2.455.89-.653 1.806-.822 2.575-.476.789.353 1.282 1.176 1.392 2.313.271 2.828-1.454 5.624-2.839 7.87-.235.382-.413.67-.573.94l-1.709 2.9a.63.63 0 01-.543.31zm-1.341-10.479a1.26 1.26 0 00-.49.112c-1.241.524-2.423 2.487-2.577 4.285-.213 2.465 1.049 3.051 2.385 3.669.25.118.443.208.615.303l1.172.632 1.4-2.376c.164-.278.344-.571.53-.874 1.342-2.173 2.942-4.769 2.711-7.172-.063-.655-.298-1.123-.649-1.28-.336-.149-.813-.027-1.312.341-.78.577-1.486 1.668-1.841 2.844a.63.63 0 01-.56.448.641.641 0 01-.616-.364c-.176-.379-.432-.568-.768-.568zM204.38 333.649a.632.632 0 01-.632-.632v-1.106c0-2.334 1.58-5.075 3.598-6.24l3.698-2.139c1.08-.626 2.13-.707 2.954-.23.822.476 1.277 1.426 1.277 2.674v1.106a.632.632 0 01-1.263 0v-1.106c0-.765-.235-1.343-.646-1.58-.413-.235-1.027-.153-1.69.23l-3.699 2.138c-1.607.93-2.966 3.287-2.966 5.145v1.105a.631.631 0 01-.631.635zM208.364 324.267c-.353 0-.685-.086-.983-.258-.689-.397-1.068-1.183-1.068-2.211 0-1.87 1.266-4.063 2.882-4.997.887-.512 1.757-.58 2.447-.181.688.397 1.067 1.183 1.067 2.211 0 1.869-1.266 4.064-2.881 4.997-.506.291-1.003.439-1.464.439zm2.291-6.637c-.239 0-.525.09-.829.265-1.22.706-2.249 2.492-2.249 3.903 0 .549.159.955.435 1.116.278.16.709.094 1.183-.18 1.22-.706 2.25-2.493 2.25-3.903 0-.549-.16-.956-.436-1.115a.698.698 0 00-.354-.086zm-1.144-.282h.012-.012z" fill="#455A64"/><path d="M76.103 338.123l43.282-25.026v47.467l-43.282 25.024v-47.465z" fill="#A5CEFF"/><path d="M76.103 385.588l14.68-41.532 13.937 16.026-2.592-4.8 5.398-11.594 11.859 16.875-43.282 25.025zM104.268 332.254c1.417-.82 2.565-.156 2.565 1.484 0 1.638-1.186 3.652-2.65 4.498-1.464.846-2.612.182-2.565-1.484.046-1.664 1.232-3.678 2.65-4.498z" fill="#0085FF"/><path d="M123.729 310.586l43.283-25.025.001 47.465-43.284 25.026v-47.466z" fill="#A5CEFF"/><path d="M123.729 358.052l14.683-41.534 13.935 16.025-2.592-4.799 5.398-11.595 11.859 16.876-43.283 25.027zM151.895 304.716c1.417-.819 2.565-.155 2.565 1.484 0 1.638-1.186 3.653-2.65 4.498-1.464.847-2.612.183-2.565-1.483.046-1.665 1.234-3.679 2.65-4.499z" fill="#0085FF"/><path d="M171.359 283.048l43.283-25.025v47.466l-43.283 25.026v-47.467z" fill="#A5CEFF"/><path d="M171.359 330.515l14.683-41.535 13.935 16.026-2.592-4.799 5.398-11.595 11.859 16.876-43.283 25.027zM199.525 277.179c1.417-.819 2.565-.155 2.565 1.484 0 1.638-1.186 3.653-2.65 4.498-1.464.847-2.612.182-2.566-1.483.047-1.666 1.233-3.679 2.651-4.499z" fill="#0085FF"/><path d="M128.557 93.875c-.017.007-.032.016-.048.024-.475.245-.872.655-1.183 1.214a3.451 3.451 0 00-.437 1.807c.014.463.103.813.281 1.024a.821.821 0 00.636.337c.25.005.501-.013.743-.037.243-.034.451-.02.625.033.168.056.261.192.263.414.015.526-.235.927-.759 1.198-.008.003-.017.007-.024.012-.504.249-.845.088-1.018-.5l-.835 1.204c.159.444.407.727.735.842.323.118.696.073 1.129-.142.017-.007.032-.016.048-.024.517-.265.941-.679 1.266-1.244.331-.56.489-1.182.471-1.856-.014-.473-.11-.821-.287-1.054-.176-.222-.387-.343-.636-.336a4.33 4.33 0 00-.735.032c-.243.025-.451.01-.626-.032-.174-.053-.26-.193-.27-.422a1.122 1.122 0 01.184-.656 1.23 1.23 0 01.473-.447l.024-.012c.4-.199.686-.072.856.367l.815-1.15c-.173-.374-.405-.611-.712-.715-.288-.104-.613-.062-.979.119zM136.256 89.874l-.061.03c-.626.32-1.09.934-1.374 1.834-.297-.58-.735-.726-1.308-.443l-.025.013c-.578.297-1.007.871-1.286 1.703l-.02-.843-.992.522.186 7.018.992-.512-.11-3.928c-.01-.615.073-1.124.254-1.534.18-.42.419-.698.722-.86.276-.136.492-.114.647.076.155.19.244.52.251 1.018l.115 4.255.992-.522-.102-3.932c-.017-.62.059-1.128.232-1.534.174-.406.413-.685.716-.835l.032-.017c.261-.129.472-.105.629.074.169.183.258.524.273 1.007l.115 4.255.991-.522-.116-4.352c-.028-.873-.203-1.479-.535-1.828-.317-.332-.722-.388-1.218-.143zM144.046 85.82c-.01.006-.022.01-.033.017-.634.335-1.089.944-1.374 1.843-.297-.59-.735-.736-1.308-.453-.009.004-.016.01-.025.013-.585.311-1.014.875-1.292 1.718l-.02-.844-.992.512.186 7.028.991-.522-.102-3.931c-.016-.611.066-1.121.246-1.531.181-.41.427-.702.723-.849l.031-.016c.261-.13.467-.103.616.08.163.187.243.53.259 1.015l.107 4.26.992-.513-.103-3.942c-.016-.61.066-1.132.234-1.524.174-.406.413-.684.722-.849l.032-.016c.26-.13.466-.103.629.073.163.186.258.524.265 1.01l.115 4.256.992-.512-.116-4.362c-.021-.865-.197-1.482-.528-1.83-.325-.34-.744-.38-1.247-.13zM148.188 81.861l-.978.964.038 1.52-.84.436.037 1.455.847-.44.088 3.372c.021.918.203 1.468.545 1.63.228.12.554.071.974-.136.202-.1.425-.237.67-.409l-.042-1.356a9.575 9.575 0 01-.48.263c-.052.026-.1.048-.147.069-.165.07-.296.072-.381-.014-.091-.083-.143-.271-.148-.557l-.087-3.372 1.137-.595-.037-1.455-1.143.587-.053-1.962zM152.385 87.483c-.394.195-.725.146-1.007-.121-.281-.277-.434-.735-.452-1.378a3.94 3.94 0 01.368-1.794c.269-.57.602-.96 1.003-1.168l.029-.016c.394-.194.731-.149 1.006.122.29.273.443.731.459 1.374a3.881 3.881 0 01-.375 1.797c-.262.567-.596.956-1.003 1.169a.108.108 0 01-.028.015zm-.095-5.953l-.03.015c-.675.356-1.234 1.006-1.691 1.969a6.5 6.5 0 00-.635 2.993c.023 1.034.285 1.79.771 2.255.486.464 1.06.522 1.715.199a.75.75 0 00.031-.016c.682-.357 1.248-1.011 1.697-1.97a6.555 6.555 0 00.635-2.993c-.031-1.031-.285-1.791-.771-2.256-.479-.468-1.052-.526-1.722-.196zM159.673 77.879l-.992.522.1 3.762c.018.686-.079 1.245-.279 1.687-.209.445-.482.761-.833.945-.317.156-.573.155-.764-.038-.191-.184-.293-.54-.308-1.066l-.106-4.153-.992.513.109 4.312c.027.905.204 1.522.543 1.877.332.338.751.376 1.267.122.011-.005.021-.012.033-.017.648-.341 1.11-.943 1.394-1.821l.02.897.992-.513-.184-7.03zM163.036 75.95l-.045.022c-.688.362-1.254 1.016-1.699 1.961a6.6 6.6 0 00-.626 2.99c.03 1.042.285 1.8.764 2.269.466.454 1.031.526 1.7.196l.06-.03c.447-.232.851-.603 1.205-1.119.36-.52.629-1.112.812-1.779l-.873-.304a3.332 3.332 0 01-.47 1.043 2.106 2.106 0 01-.725.68l-.03.015c-.387.19-.724.155-.999-.126-.282-.276-.435-.724-.452-1.356a3.897 3.897 0 01.367-1.783c.262-.567.596-.957.996-1.165.275-.137.525-.175.741-.089.216.085.379.26.494.545l.829-1.199c-.195-.459-.484-.754-.861-.886-.357-.147-.758-.1-1.188.115zM166.696 71.385l-.992.512.258 9.833.991-.513-.093-3.764c-.018-.686.071-1.252.279-1.697.209-.445.481-.75.833-.934.011-.007.022-.012.034-.018.302-.15.547-.132.73.046.191.183.293.537.308 1.065l.106 4.164.992-.522-.117-4.309c-.021-.897-.204-1.522-.543-1.867-.319-.335-.736-.385-1.233-.14l-.06.031c-.648.331-1.117.937-1.395 1.822l-.098-3.71z" fill="#455A64"/><path d="M445.535 188.74c17.996 10.405 46.622 31.077 46.622 75.477 0 44.4-29.802 79.593-69.935 94.346-21.465 7.89-55.487 10.913-81.408-2.37-22.541-11.55-37.725-23.428-45.993-44.991-13.863-36.155.012-64.029 20.731-79.007 20.719-14.977 29.175-20.626 46.837-37.371 8.967-8.502 22.367-14.215 36.523-15.794 15.442-1.721 32.923 1.788 46.623 9.71z" fill="#FFBD12"/><path d="M440.872 336.997c35.56-29.015 38.106-75.091 29.33-103.215-9.189-29.442-36.984-51.565-71.306-54.748l.017-.003a71.3 71.3 0 017.486-.413c30.931 4.969 56.395 26.923 65.086 54.763 8.888 28.485 6.282 75.246-29.765 104.658-15.409 12.573-38.713 23.487-57.132 27.254-2.195.039-4.404.022-6.62-.066 22.17-3.174 47.681-15.81 62.904-28.23z" fill="#E6AA10"/><path opacity=".1" d="M334.858 258.441c13.35-7.398 15.943-15.489 27.531-45.633 11.587-30.143 33.173-20.613 33.173-20.613s40.482 11.905 46.719 30.774c5.062 15.312-1.409 34.92-6.504 46.639-4.054 9.324-8.891 14.59-8.891 14.59 15.257-3.006 27.411 7.301 27.411 7.301s-12.872-6.118-34.002 2.37c-12.511 5.025-22.262 14.962-35.552 18.863-10.319 3.029-20.782 6.089-29.284 12.986-7.644 6.202-13.003 15.311-14.258 25.123-.214 1.676-.394 3.498-1.143 4.954-13.441-6.944-24.229-14.055-32.458-23.344-.252-3.008-.069-6.096-.149-9.105-.294-11.089-.436-22.212.153-33.294 1.348-25.471 13.904-24.213 27.254-31.611z" fill="#000"/><path d="M379.332 170.379c-6.154-.584-13.239.175-16.956 4.812-4.937 6.16-15.18 31.316-18.527 43.887-.914 3.435 14.944 11.558 14.944 11.558l10.408-22.534 10.131-37.723z" fill="#F28F8F"/><path d="M378.294 170.118c-6.936-.554-11.805.653-15.05 3.624-3.244 2.971-6.877 10.678-8.747 15.135-1.869 4.456-6.006 15.505-6.006 15.505s4.785 6.639 18.045 8.821c4.118-12.781 11.758-43.085 11.758-43.085z" fill="#2F74E0"/><path d="M311.035 332.514s5.356 17.652 5.089 24.393c-.278 7.025 1.194 9.498-.692 16.992-.411 1.631-1.587 4.871-1.927 6.196-.304 1.179.056 2.183 1.563 2.645 2.972.911 8.531-4.323 11.499-10.3 2.968-5.979 7.655-19.652 8.021-21.308.354-1.595.002-3.654-.506-4.983-.892-2.331-1.158-2.663-1.158-2.663-.721-3.137-.667-8.966-1.141-13.048l-20.748 2.076z" fill="#FFA8A7"/><path d="M339.923 358.055s.636 1.468.599 2.367c-.057 1.402-3.626 5.703-5.014 7.262-1.388 1.559-2.789 3.543-3.006 7.736-.232 4.482-2.599 8.596-5.817 12.012-3.219 3.414-8.587 6.983-16.151 8.566-7.564 1.585-9.815-2.346-9.815-2.346s-1.951-3.765-.446-5.095c1.504-1.328 39.65-30.502 39.65-30.502z" fill="#263238"/><path d="M332.922 343.487c.225.013.625-.014 1.138.735.193.284 1.229 3.72 2.182 5.562 1.018 1.971 3.567 5.413 3.681 8.271-2.208 5.302-7.673 8.626-8.919 13.71-1.244 5.083-1.885 11.058-10.378 16.632-8.494 5.575-16.688 5.471-19.456 3.53-2.769-1.941-2.211-5.052 2.415-10.647 4.911-5.938 9.095-19.404 9.097-19.41.58-1.863.973-3.85 1.305-5.771.322-1.868-.04-3.928-.011-5.833.013-.901.067-1.867.611-2.585s1.458-1.031 2.316-1.305c1.371-.438 2.756-.879 4.19-1.002 1.434-.123 2.942.099 4.141.896.867.577 1.54 1.428 2.461 1.913 1.234.652 2.841.515 3.949-.335 1.632-1.253 1.526-2.526 1.382-3.478.029-.023-.104-.883-.104-.883z" fill="#455A64"/><path d="M325.717 383.769s-2.488-6.524-10.89-7.271c-8.403-.748-11.706 3.262-13.216 5.661-1.799 2.857-3.886 8.142-.565 10.022 3.589 2.032 7.974 1.914 15.112-.878 7.138-2.791 9.559-7.534 9.559-7.534zM326.531 358.292a.87.87 0 01-.766-.075c-1.236-.783-7.968-2.857-12.31.488-.479-.465-.304-1.215.458-2.225 4.955-2.542 11.329-.61 12.822.335.391.247.49.763.222 1.148a.906.906 0 01-.426.329zM312.137 363.525c-.219-.771.248-1.888.698-2.267 4.847-2.08 10.768-.266 12.2.64.392.247.49.761.223 1.148a.884.884 0 01-.426.329.866.866 0 01-.766-.074c-1.201-.76-7.588-2.721-11.929.224zM307.661 374.572c.059-1.032.521-2.019 1.356-2.944 4.922-2.382 11.149-.494 12.621.438a.804.804 0 01.223 1.149.884.884 0 01-.426.329.87.87 0 01-.766-.074c-1.306-.827-8.731-3.087-13.008 1.102zM323.133 368.46a.873.873 0 01-.766-.075c-1.223-.774-7.816-2.799-12.161.384-.11-.796.187-1.614.932-2.425 4.849-2.08 10.769-.266 12.2.639.391.247.49.763.222 1.148a.903.903 0 01-.427.329z" fill="#FAFAFA"/><path d="M301.64 352.709s-5.354 20.428-9.917 28.123c-4.564 7.696-6.886 11.399-12.71 17.001-1.269 1.219-4.106 3.442-5.142 4.427-.923.878-1.16 1.969-.078 3.216 2.133 2.458 12.003 3.909 17.947.252 5.945-3.657 11.83-12.077 15.455-15.128a55.505 55.505 0 003.895-3.594c1.198-1.22 1.019-2.502 1.251-3.972.112-.71.19-2.671.19-2.671 1.083-3.423 3.649-8.714 5.057-12.016l-15.948-15.638z" fill="#FFA8A7"/><path d="M313.042 396.22s-.054 1.673-.488 2.508c-.68 1.301-5.976 3.775-7.985 4.629-2.009.854-4.22 2.105-6.295 5.976-2.218 4.137-6.293 6.972-10.862 8.764-4.57 1.791-11.241 2.766-19.105.882-7.864-1.885-8.241-6.612-8.241-6.612s-.167-4.436 1.85-5.02c2.015-.583 51.126-11.127 51.126-11.127z" fill="#263238"/><path d="M312.916 379.304c.207.112.598.266.748 1.204.057.355-.496 4.069-.417 6.238.085 2.322.961 6.718-.207 9.473-4.453 4.029-11.109 4.731-14.554 8.983-3.445 4.254-6.716 9.622-17.241 11.096-10.524 1.476-18.231-2.287-19.985-5.362-1.755-3.074.161-5.769 7.036-8.994 7.296-3.423 17.262-14.294 17.266-14.299 1.379-1.504 2.639-3.208 3.809-4.877 1.138-1.624 1.715-3.734 2.591-5.525.415-.846.896-1.736 1.731-2.172.836-.437 1.839-.323 2.773-.2 1.493.199 3 .401 4.412.927 1.413.526 2.74 1.41 3.519 2.7.563.934.82 2.041 1.475 2.912.878 1.169 2.459 1.759 3.886 1.449 2.104-.455 2.571-1.707 2.859-2.672.04-.008.299-.881.299-.881z" fill="#455A64"/><path d="M288.129 414.199s.557-7.287-7.061-11.753c-7.618-4.465-12.532-2.148-15.031-.553-2.976 1.898-7.311 5.965-5.006 9.232 2.49 3.527 6.691 5.376 14.691 5.928 8.001.552 12.407-2.854 12.407-2.854zM300.263 390.453a.91.91 0 01-.692-.413c-.82-1.294-6.265-6.268-11.866-5.046-.247-.653.255-1.285 1.427-1.9 5.822-.189 10.993 4.49 11.983 6.053.26.41.123.941-.301 1.186a.925.925 0 01-.551.12zM284.309 388.968c.136-.828 1.076-1.675 1.671-1.832 5.515.199 10.308 4.564 11.259 6.062a.841.841 0 01-.301 1.186.924.924 0 01-.551.12.908.908 0 01-.691-.413c-.798-1.256-5.966-5.969-11.387-5.123zM275.145 397.42c.516-.95 1.393-1.677 2.596-2.181 5.72-.052 10.77 4.52 11.748 6.061a.84.84 0 01-.302 1.186.93.93 0 01-1.242-.291c-.867-1.367-6.884-6.827-12.8-4.775zM292.512 398.556a.914.914 0 01-.692-.414c-.812-1.279-6.147-6.145-11.679-5.076.25-.803.896-1.445 1.963-1.879 5.517.2 10.31 4.565 11.26 6.062a.84.84 0 01-.302 1.186.925.925 0 01-.55.121z" fill="#FAFAFA"/><path d="M358.275 238.811c-9.07 5.446-40.232 19.802-53.273 29.821-3.767 2.895-5.301 7.023-5.301 16.33 0 12.632 5.881 56.223 5.881 56.223 1.129 2.536 3.934-1.815 3.934-1.815l52.384-55.244-3.625-45.315z" fill="#2F74E0"/><path opacity=".3" d="M308.844 328.085c11.685-8.069 51.838-60.174 51.838-60.174l-.016-.019c-4.398-4.479-5.564-18.703-5.564-18.703-2.391 5.224-1.146 13.553.047 16.666-2.98 2.135-19.754 13.527-31.377 21.105-2.915 1.901-5.937 4.302-7.321 9.114-3.316 11.534-7.643 29.612-7.607 32.011z" fill="#000"/><path d="M358.274 238.811l59.693 19.295c-3.972 10.817-5.26 16.417-8.876 21.973-3.628 5.574-8.296 11.233-24.706 17.516-15.798 6.048-34.965 12.009-38.82 13.425-2.905 1.068-4.746 6.517-6.673 13.623-2.02 7.455-2.687 13.373-11.643 28.58-8.768 14.891-10.578 18.117-10.578 18.117s-11.448.129-18.36-7.201c0 0 15.205-52.432 18.284-61.839 1.719-5.255 2.006-8.083 9.206-13.364 6.173-4.527 33.443-21.48 33.443-21.48s-8.859-14.551-.97-28.645z" fill="#2F74E0"/><path d="M426.317 183.585c.505 5.358 2.663 50.809-10.01 79.59-17.01 7.774-58.602-4.033-61.81-24.535 0 0 5.707-8.376 7.863-14.522.622-10.356 2.334-26.998 3.106-33.076 1.53-12.043 6.921-19.969 12.827-20.923l19.442.595 10.841 2.363s17.426 7.164 17.741 10.508z" fill="#455A64"/><path d="M412.506 120.562s4.934.584 7.177 5.548c1.422 3.147.139 9.343-1.935 17.499-2.073 8.156-4.005 13.065-5.205 15.318-1.199 2.251-3.634 2.869-3.634 2.869l.31-9.694.401-6.754s-6.105 1.789-7.515-8.085c-.887-6.214-.036-8.204-.036-8.204l10.437-8.497z" fill="#263238"/><path d="M386.897 148.975c9.985 0 18.08-8.106 18.08-18.105 0-10-8.095-18.106-18.08-18.106-9.986 0-18.081 8.106-18.081 18.106 0 9.999 8.095 18.105 18.081 18.105z" fill="#263238"/><path d="M407.374 144.569c1.828.565 2.735-2.628 4.115-4.043 1.38-1.415 5.749-2.713 8.698 1.492 3.036 4.328-.566 11.278-3.912 12.802-4.903 2.231-7.056-2.719-7.056-2.719l-.673 21.913s-1.318 4.092-9.708 6.979c-6.546 2.253-16.089-1.674-9.977-7.855l.089-6.645c-2.801.5-6.605.662-9.462.091-3.233-.646-5.729-3.223-7.171-8.328-2.814-9.964-1.989-23.049 1.934-34.842 5.007-3.816 17.426-1.065 27.818 5.644.194 13.538 3.247 14.876 5.305 15.511z" fill="#FFA8A7"/><path d="M392.167 153.512l-8.683 1.971c.457 2.441 2.772 3.978 5.17 3.433 2.398-.545 3.97-2.964 3.513-5.404z" fill="#B16668"/><path d="M391.726 156.46a3.727 3.727 0 00-6.125 1.996c.89.506 1.959.708 3.053.46 1.379-.314 2.467-1.257 3.072-2.456z" fill="#F28F8F"/><path d="M370.613 111.407c.137-.258.364-.491.65-.495.225-.003.425.136.606.271.653.48 2.096 1.713 3.938 2.699a14.304 14.304 0 01-.028-5.409c.205-1.095.535-3.632 1.893-3.894.808-.156 1.507.526 2.104 1.094 5.394 5.133 12.504 2.832 19.05 3.09 5.472.216 12.061 2.498 14.492 7.847 1.112 2.447 1.288 5.019-.961 6.688-1.918 1.424-8.022 5.115-10.286 5.763-6.001 1.719-21.637 3.727-29.62-6.516-1.176-1.508-2.384-4.741-2.56-6.653-.148-1.616.009-2.985.69-4.421a.546.546 0 01.032-.064z" fill="#263238"/><path d="M388.951 166.495s8.257-2.006 11.574-4.114c2.448-1.556 4.684-4.11 5.26-5.477 0 0-.879 4.642-3.217 7.068-4.093 4.245-13.646 5.167-13.646 5.167l.029-2.644z" fill="#F28F8F"/><path d="M389.508 142.743c-.012 1.142.868 2.076 1.966 2.085 1.099.008 1.998-.91 2.011-2.053.012-1.142-.868-2.076-1.967-2.084-1.096-.011-1.997.909-2.01 2.052zM391.442 134.199l4.316 2.235c.594-1.24.109-2.746-1.083-3.363-1.192-.618-2.639-.112-3.233 1.128zM373.3 134.822l4.712-1.333c-.322-1.328-1.637-2.105-2.938-1.736-1.301.367-2.095 1.741-1.774 3.069zM374.489 141.29c-.012 1.142.868 2.075 1.966 2.084 1.098.009 1.999-.909 2.011-2.052.012-1.143-.867-2.076-1.966-2.085-1.098-.01-1.998.91-2.011 2.053z" fill="#263238"/><path d="M383.783 150.946l-6.548-2.209 7.013-10.855-.465 13.064z" fill="#F28F8F"/><path d="M335.073 207.376l-.027.001 1.404-1.07v.018c.316-.224.787-.27 1.38-.07l14.205 4.811c1.317.445 2.687 1.893 3.061 3.234l8.576 30.659c.198.71.07 1.24-.284 1.522l.011.005-1.447 1.102.002-.017c-.315.233-.792.283-1.394.079l-14.205-4.809c-1.317-.446-2.688-1.894-3.062-3.234-1.684-6.026-6.892-24.635-8.576-30.66-.211-.757-.051-1.306.356-1.571z" fill="#455A64"/><path d="M352.148 213.067c.717.64 1.314 1.499 1.543 2.308l8.58 30.651c.184.687.086 1.211-.235 1.496l1.36-1.031-.013-.013c.362-.283.486-.806.291-1.521l-8.58-30.664c-.205-.755-.754-1.545-1.418-2.182l-1.528.956z" fill="#263238"/><path d="M362.264 246.03l-8.576-30.659c-.375-1.341-1.745-2.788-3.061-3.234l-14.204-4.809c-1.317-.446-2.08.279-1.706 1.619 1.684 6.025 6.892 24.633 8.576 30.66.375 1.341 1.746 2.789 3.061 3.234l14.205 4.81c1.316.445 2.08-.28 1.705-1.621z" fill="#37474F"/><path d="M337.493 218.871c-2.495-.756-4.059 1.914-3.913 6.621.145 4.706 2.821 13.441 10.087 11.326 2.829-.824 4.896-5.501 1.967-7.62-5.103-3.692-6.817-5.595-6.817-5.595l-1.324-4.732z" fill="#F28F8F"/><path d="M426.334 248.42c2.999-6.012 8.267-20.68 10.194-35.287 2.61-19.778 1.403-27.695-12.667-32.316-10.436 9.016-7.58 31.297-7.58 31.297-1.886 8.267-5.03 22.343-7.135 27.56-13.3-.138-37.583-7.99-40.285-9.479-1.388-.765-2.909-3.009-3.798-4.204-1.213-1.631-2.126-2.561-3.608-3.372-1.84-1.006-3.37-1.606-4.689-2.346l1.782 6.4c-.151.368-.993.447-1.38.568-2.816.881-5.86 1.24-8.801.987-6.193-.531-11.943-5.104-10.802.414.454 2.198 1.307 6.321 4.559 9.144 3.209 2.787 15.297 4.19 18.676 5.808 0 0 30.876 13.511 43.575 15.199 13.596 1.806 16.11 1.353 21.959-10.373z" fill="#FFA8A7"/><path d="M422.594 179.998c6.825 2.082 12.631 3.854 15.037 13.682 2.406 9.827-3.064 33.491-3.064 33.491s-12.87 2.586-21.556-3.054l2.179-12.006c-.473-13.987 1.062-25.474 7.404-32.113z" fill="#2F74E0"/><path d="M459.281 376.892c-9.575-9.783-15.199-38.97-5.86-46.73h47.517c9.336 7.757 3.718 36.931-5.851 46.72-.081.092-.175.179-.262.27-.11.109-.219.218-.33.323-.271.262-.558.519-.866.77-.075.063-.152.119-.229.18-.234.183-.466.368-.723.546-.408.29-.82.56-1.237.792-7.877 4.554-20.646 4.554-28.521 0h-.002c-.42-.234-.835-.506-1.246-.798-.238-.166-.453-.338-.673-.509-.095-.075-.189-.145-.282-.222a13.585 13.585 0 01-.836-.744c-.127-.12-.254-.247-.38-.372-.071-.074-.151-.149-.219-.226z" fill="#37474F"/><path d="M496.811 327.037c10.842 6.268 10.841 16.431 0 22.699-10.842 6.269-28.42 6.269-39.261 0-10.841-6.268-10.841-16.431 0-22.699 10.842-6.267 28.42-6.267 39.261 0z" fill="#455A64"/><path d="M491.596 330.052c7.962 4.604 7.962 12.067 0 16.671-7.962 4.603-20.87 4.603-28.832 0-7.963-4.604-7.963-12.067 0-16.671 7.962-4.603 20.87-4.603 28.832 0z" fill="#263238"/><path d="M462.764 337.963c7.962-4.603 20.87-4.603 28.832 0 2.212 1.279 3.786 2.782 4.77 4.38-.983 1.598-2.558 3.1-4.77 4.38-7.962 4.603-20.87 4.603-28.832 0-2.212-1.278-3.787-2.782-4.77-4.38.983-1.598 2.558-3.1 4.77-4.38z" fill="#F5F5F5"/><path d="M469.083 318.506c1.412-2.127 3.507-3.767 4.789-5.98 2.69-4.649-.534-9.191.814-13.931.588-2.068 2.322-3.653 4.261-4.574 1.939-.921 4.091-1.275 6.21-1.625 1.129-.187 2.284-.383 3.282-.943 1.228-.688 1.609-1.903 2.375-2.97.842-1.175 1.938-2.262 3.012-3.223 2.237-2.002 5.041-3.649 8.138-3.512 6.462.286 6.279 5.855 4.413 10.078-1.865 4.223-2.356 5.596 1.682 9.995 4.038 4.398 4.047 9.819-.771 12.856-4.816 3.037-7.952 3.435-6.045 9.281 1.703 5.218 2.758 9.673-2.058 15.25-3.113 3.605-7.368 6.177-12.693 5.959-9.64-.396-17.472-8.222-19.074-17.52-.516-2.99-.138-6.2 1.442-8.79.072-.119.147-.236.223-.351z" fill="#3893FF"/><path d="M502.021 306.99a.477.477 0 00-.581-.346c-.396.102-9.151 2.413-15.072 5.713 5.075-12.994 11.759-20.257 11.869-20.373a.485.485 0 00-.017-.681.471.471 0 00-.673.015c-.099.106-5.531 6.004-10.363 16.654-1.995-4.478-4.75-7.789-4.874-7.938a.471.471 0 00-.671-.055.486.486 0 00-.054.679c.031.038 3.12 3.758 5.07 8.502a82.36 82.36 0 00-1.62 4.016.472.472 0 00-.121.332c-2.952 8.013-5.23 18.011-5.13 29.727a.48.48 0 00.632.452.479.479 0 00.319-.459c-.099-11.61 2.162-21.511 5.087-29.435 5.757-3.55 15.755-6.188 15.856-6.216a.481.481 0 00.343-.587z" fill="#fff"/><path d="M477.981 346.087c-.273.172-2.499.952-2.809 1.043-3.553 1.025-8.183.477-12.368-.15-2.758-.413-6.476-.99-8.525-3.045-1.014-1.018-1.587-2.622-.992-3.931.642-1.411 2.464-2.212 2.611-3.755-3.009-1.002-6.556-.216-9.245-1.899-2.025-1.267-3.278-3.242-4.179-5.455-.532-1.305-.825-3.192-.201-4.456.738-1.496 2.662-1.86 4.311-2.107.436-.065.884-.14 1.256-.376.371-.237.647-.681.554-1.111-.113-.528-.688-.802-1.203-.966-1.102-.353-2.248-.565-3.328-.979-1.081-.414-2.123-1.068-2.705-2.069-.691-1.191-.628-2.661-.503-4.034.21-2.322.485-4.675.974-6.957.118-.55.752-6.082.55-6.038 5.717-1.272 11.876-.796 17.557.394 3.172.665 7.779 2.147 9.172 5.465.397.944.452 1.975.359 2.984-.042.458-.215.916-.316 1.362-.063.283-.342 1.381.338.874.152-.112.242-.287.326-.456l2.234-4.462c.224-.446.466-.914.889-1.178.896-.559 3.293-.123 5.826 1.894 1.677 1.335 2.665 3.437 3.128 5.518.744 3.35.178 6.836-.39 10.22l2.174-3.028c2.54-3.537 4.106 2.924 4.209 4.321.269 3.677-.48 9.381-2.01 12.737-1.782 3.91-4.058 7.364-7.694 9.64z" fill="#0D9DDB"/><path d="M471.219 329.404c.153-7.479 2.747-13.035 4.303-16.359l.056-.119a.437.437 0 10-.789-.37l-.056.119c-1.488 3.181-3.894 8.386-4.312 15.355-6.921-11.661-17.053-22.753-22.385-25.654a.467.467 0 00-.445.82c5.26 2.862 15.262 13.823 22.072 25.331-9.12-3.863-17.269-1.194-17.355-1.166a.435.435 0 00.067.843c.07.012.142.007.213-.017.085-.029 8.574-2.818 17.822 1.624 3.119 5.484 5.452 11.03 6.14 15.823a.465.465 0 00.92-.133c-.7-4.876-3.075-10.518-6.251-16.097z" fill="#fff"/><path d="M394.845 87.594l4.254-12.12-3.422-9.895v-6.056l10.475 6.056v6.057l-4.504 11.921a.659.659 0 01-.306.272l.003.004-6.5 3.76z" fill="#C7264B"/><path d="M369.828 11.375c0-2.005 1.406-4.444 3.14-5.447l2.558-1.478c1.735-1.004 4.547-1.004 6.282 0l39.218 22.715c1.735 1.003 3.14 3.442 3.14 5.447v43.211c0 2.007-1.406 4.444-3.14 5.448l-2.558 1.478c-1.735 1.004-4.547 1.004-6.282 0l-12.612-7.297-4.495 11.906a.67.67 0 01-1.214-.116L389.114 69.4l-16.146-9.366c-1.734-1.003-3.14-3.441-3.14-5.448V11.375z" fill="#F92F5E"/><path opacity=".2" d="M424.166 75.823c0 2.005-1.406 4.444-3.14 5.447l-2.558 1.479c-1.568.907-4.007.986-5.744.254 1.478.56 2.603-.275 2.603-2.07v-43.21c0-1.004-.352-2.114-.92-3.101l8.839-5.11c.568.985.919 2.097.919 3.099v43.212h.001z" fill="#000"/><path opacity=".3" d="M369.932 10.48c.365-1.335 1.582-1.76 3.032-.924l39.225 22.72c.864.5 1.656 1.35 2.213 2.348l8.835-5.106c-.572-.997-1.348-1.848-2.212-2.347l-39.21-22.72c-1.744-.998-4.557-.998-6.287 0l-2.564 1.482c-1.479.85-2.724 2.758-3.032 4.548z" fill="#fff"/><path d="M404.807 50.366c.011-2.098-.571-4.347-1.531-6.37l.005-.004-.02-.043c-1.122-2.347-2.769-4.383-4.602-5.457-2.673-1.576-4.969.403-5.851 3.376a.29.29 0 01-.567-.028c-.785-4.06-3.102-8.944-5.853-10.554-1.833-1.076-3.489-.981-4.629.038l-.021.019.004.009c-.974.887-1.575 2.444-1.585 4.542-.033 6.502 4.479 12.753 8.253 19.247l4.073 6.312 3.928-1.614c3.815-2.037 8.362-2.97 8.396-9.473z" fill="#FAFAFA"/><path d="M318.671 138.262l4.255-12.121-3.423-9.894v-6.057l10.475 6.057v6.057l-4.504 11.921a.655.655 0 01-.306.272l.003.004-6.5 3.761z" fill="#C7264B"/><path d="M293.654 62.043c0-2.005 1.406-4.444 3.141-5.447l2.557-1.478c1.735-1.004 4.547-1.004 6.282 0l39.218 22.715c1.735 1.003 3.14 3.442 3.14 5.447v43.211c0 2.006-1.406 4.444-3.14 5.448l-2.558 1.478c-1.734 1.004-4.547 1.004-6.281 0L323.4 126.12l-4.495 11.906a.67.67 0 01-1.214-.116l-4.751-17.841-16.145-9.366c-1.735-1.003-3.141-3.441-3.141-5.448V62.043z" fill="#F92F5E"/><path opacity=".2" d="M347.993 126.49c0 2.006-1.407 4.445-3.141 5.448l-2.557 1.479c-1.568.906-4.008.986-5.745.253 1.478.56 2.603-.275 2.603-2.069v-43.21c0-1.004-.351-2.116-.92-3.101l8.839-5.11c.568.985.919 2.097.919 3.1v43.21h.002z" fill="#000"/><path opacity=".3" d="M293.758 61.148c.366-1.335 1.582-1.76 3.032-.924l39.225 22.72c.864.5 1.656 1.35 2.213 2.348l8.835-5.106c-.572-.997-1.348-1.848-2.212-2.347l-39.21-22.72c-1.744-.998-4.557-.998-6.286 0L296.79 56.6c-1.479.85-2.724 2.758-3.032 4.547z" fill="#fff"/><path d="M328.633 101.034c.011-2.098-.57-4.347-1.53-6.37l.004-.004-.02-.043c-1.122-2.347-2.769-4.383-4.601-5.457-2.674-1.576-4.97.403-5.852 3.376a.29.29 0 01-.567-.028c-.785-4.06-3.101-8.944-5.853-10.554-1.832-1.076-3.489-.981-4.629.038l-.021.019.004.009c-.975.887-1.574 2.444-1.585 4.542-.034 6.502 4.478 12.753 8.252 19.247l4.073 6.312 3.928-1.614c3.817-2.037 8.364-2.97 8.397-9.473z" fill="#FAFAFA"/><path d="M475.815 170.441l3.08-8.772-2.478-7.16v-4.383l7.582 4.383v4.383l-3.259 8.628a.476.476 0 01-.222.197l.002.004-4.705 2.72z" fill="#4346AA"/><path d="M457.711 115.279c0-1.451 1.017-3.216 2.273-3.942l1.85-1.07c1.256-.726 3.291-.726 4.546 0l28.384 16.439c1.255.726 2.273 2.491 2.273 3.942v31.273c0 1.452-1.018 3.217-2.273 3.943l-1.851 1.07c-1.255.726-3.29.726-4.546 0l-9.128-5.281-3.253 8.615a.484.484 0 01-.878-.083l-3.438-12.912-11.685-6.779c-1.255-.724-2.273-2.491-2.273-3.942l-.001-31.273z" fill="#3F89FF"/><path opacity=".2" d="M497.037 161.922c0 1.452-1.017 3.217-2.273 3.942l-1.85 1.07c-1.135.656-2.9.713-4.158.184 1.07.405 1.885-.199 1.885-1.498v-31.273c0-.726-.255-1.53-.666-2.244l6.396-3.698c.412.714.666 1.518.666 2.243v31.274z" fill="#000"/><path opacity=".3" d="M457.785 114.634c.265-.967 1.146-1.274 2.195-.669l28.388 16.443c.625.361 1.198.976 1.601 1.699l6.395-3.695c-.414-.721-.976-1.338-1.602-1.699l-28.378-16.443c-1.262-.722-3.298-.722-4.549 0l-1.856 1.072c-1.07.616-1.971 1.996-2.194 3.292z" fill="#fff"/><path d="M474.52 137.146a3.322 3.322 0 00-.175-.101c-1.347-.714-2.586-.027-2.863 1.599-.329 1.908.717 4.295 2.255 5.249a3.9 3.9 0 00.165.095c1.339.719 2.572.018 2.857-1.611.334-1.892-.711-4.284-2.239-5.231zm-1.12 9.639c-2.845-1.763-4.783-6.205-4.179-9.745.52-3.014 2.812-4.308 5.303-2.969.11.059.22.122.328.189 2.84 1.758 4.772 6.195 4.162 9.726-.52 3.013-2.811 4.3-5.298 2.981a6.276 6.276 0 01-.316-.182zm1.751-15.142c-4.5-2.787-8.945-2.206-12.544.986-.294.262-.362.84-.164 1.408 2.42 6.919 6.139 12.558 10.64 15.346 4.507 2.791 8.951 2.21 12.55-.982.295-.261.363-.84.163-1.399-2.418-6.928-6.138-12.567-10.645-15.359z" fill="#fff"/><path d="M80.994 346.569l-5.165-9.731 4.132-11.884v-7.234l-12.741 7.234v7.233l5.51 9.474c.171.171.258.258.43.258l7.834 4.65z" fill="#263238"/><path d="M102.347 278.88c0-2.498-1.636-5.34-3.788-6.546l-3.186-1.808c-2.066-1.206-5.51-1.206-7.663 0L54.91 289.558c-2.066 1.206-3.788 4.134-3.788 6.546v37.979c0 2.496 1.637 5.339 3.788 6.544l3.186 1.809c2.066 1.206 5.51 1.206 7.662 0l9.729-5.598 5.51 9.473c.43.517 1.205.517 1.463-.172l5.77-16.535 10.502-6.115c2.067-1.206 3.788-4.134 3.788-6.545l-.172-38.064z" fill="#FFBD12"/><path d="M51.121 334.168c0 2.497 1.637 5.34 3.788 6.544l3.186 1.809c1.893 1.12 4.82 1.206 6.973.258-1.808.69-3.186-.258-3.186-2.496v-37.979c0-1.206.43-2.584 1.12-3.704l-10.59-6.201c-.688 1.206-1.118 2.584-1.118 3.703v37.979h-.173v.087z" fill="#A96800"/><path d="M102.174 277.846c-.43-1.636-1.893-2.152-3.702-1.119L65.5 295.758c-1.12.517-2.067 1.636-2.755 2.842l-10.589-6.2a7.93 7.93 0 012.755-2.842l32.974-19.032c2.066-1.206 5.51-1.206 7.662 0l3.185 1.808c1.55.948 3.013 3.273 3.443 5.512z" fill="#D98500"/><path d="M83.569 323.246c-1.622.802-3.166.779-4.453.059-.364-.205-.604-.697-.657-1.347-.247-2.905 1.13-6.254 3.08-7.528l4.048-2.642a3.73 3.73 0 01.36-.206c1.802-.891 3.372.418 3.598 3.136.059.647-.083 1.384-.372 2.026-1.213 2.601-2.878 4.787-4.796 6.037-.27.178-.54.333-.808.465zm-.574-12.46c-1.775.878-3.334-.434-3.56-3.117-.24-2.859 1.12-6.201 3.038-7.451a3.61 3.61 0 01.364-.209c1.771-.877 3.326.444 3.55 3.122.246 2.858-1.12 6.202-3.037 7.451a3.222 3.222 0 01-.355.204zm.17-15.882c-.36.178-.723.385-1.088.624-5.809 3.794-9.924 13.883-9.19 22.541.688 8.111 5.392 12.088 10.765 9.43.357-.176.716-.382 1.078-.617 5.803-3.791 9.919-13.88 9.19-22.541-.688-8.114-5.386-12.092-10.755-9.437z" fill="#fff"/><path d="M35.437 293.277l-6.127-11.544 4.901-14.097v-8.581l-15.114 8.581v8.581l6.536 11.238c.204.203.306.306.51.306l9.294 5.516z" fill="#263238"/><path d="M60.766 212.981c0-2.962-1.942-6.334-4.494-7.764l-3.779-2.145c-2.45-1.429-6.536-1.429-9.09 0l-38.91 22.577C2.044 227.079 0 230.552 0 233.413v45.052c0 2.962 1.942 6.334 4.494 7.764l3.778 2.144c2.451 1.43 6.537 1.43 9.09 0l11.54-6.64 6.537 11.237c.51.614 1.43.614 1.736-.204l6.844-19.614 12.459-7.253c2.45-1.43 4.493-4.903 4.493-7.764l-.205-45.154z" fill="#FFBD12"/><path d="M0 278.051c0 2.962 1.942 6.334 4.494 7.764l3.778 2.145c2.247 1.328 5.72 1.429 8.273.306-2.145.817-3.779-.306-3.779-2.962v-45.052c0-1.431.51-3.064 1.328-4.393L1.53 228.504c-.817 1.43-1.326 3.065-1.326 4.393v45.051H0v.103z" fill="#A96800"/><path d="M60.561 211.756c-.51-1.941-2.246-2.553-4.391-1.328l-39.115 22.577c-1.326.612-2.45 1.941-3.268 3.37L1.226 229.02a9.42 9.42 0 013.268-3.371l39.114-22.577c2.451-1.429 6.537-1.429 9.089 0l3.779 2.145c1.839 1.124 3.574 3.882 4.085 6.539z" fill="#D98600"/><path d="M38.51 265.601c-1.93.954-3.769.93-5.298.076-.431-.248-.722-.828-.783-1.596-.292-3.446 1.346-7.413 3.65-8.92l4.806-3.137c.147-.096.294-.179.438-.252 2.133-1.054 3.988.499 4.261 3.726.062.769-.102 1.64-.451 2.395-1.431 3.094-3.408 5.688-5.684 7.171a9.46 9.46 0 01-.938.537zm-.704-14.765c-2.105 1.041-3.95-.518-4.223-3.705-.284-3.392 1.328-7.358 3.603-8.84a4.63 4.63 0 01.423-.243c2.11-1.044 3.96.513 4.228 3.703.285 3.392-1.328 7.348-3.61 8.842a4.073 4.073 0 01-.421.243zm.203-18.843c-.426.21-.855.456-1.288.738-6.886 4.496-11.774 16.46-10.904 26.734.814 9.629 6.392 14.345 12.757 11.197.426-.21.855-.456 1.287-.738 6.892-4.499 11.773-16.47 10.904-26.744-.814-9.619-6.385-14.338-12.756-11.187z" fill="#fff"/></svg>