<svg viewBox="0 0 650 200" xmlns="http://www.w3.org/2000/svg"><defs><mask id="a"><path d="m-1-1h184v202h-184z" fill="#fff"/><path d="m123.4 39.04v25c15.05-3.92 28.13-17.66 31.61-33.22zm-65 96.89c-15.05 3.921-28.13 17.66-31.61 33.21l31.61-8.215z" stroke="#000" stroke-width="20"/></mask></defs><path d="m163.2 157.5-58.63 33.85c-8.447 4.877-18.85 4.877-27.3 0l-58.63-33.85c-8.447-4.877-13.65-13.89-13.65-23.65v-67.7c-1e-3 -9.754 5.202-18.77 13.65-23.65l58.63-33.85c8.447-4.877 18.85-4.877 27.3 0l58.63 33.85c8.447 4.877 13.65 13.89 13.65 23.65v67.7c1e-3 9.754-5.202 18.77-13.65 23.65z" fill="none" mask="url(#a)" stroke="#333" stroke-width="10"/><path transform="skewY(-14.57)" d="m58.42 71.15c-14.38 0.01371-26.95 9.457-31.07 23.07-0.32 1.057 0.3749 1.931 1.479 1.931h94.59c14.38-0.0137 26.95-9.457 31.07-23.07 0.32-1.057-0.3748-1.931-1.479-1.931zm-31.07 41.88c4.121 13.61 16.69 23.06 31.07 23.07h64.91c4.194 0 7.594 3.358 7.594 7.5s-3.4 7.5-7.594 7.5h-64.91c-14.38 0.0137-26.95 9.457-31.07 23.07-0.32 1.057 0.3749 1.931 1.479 1.931h94.59c17.95 0 32.5-14.55 32.5-32.5s-14.55-32.5-32.5-32.5h-94.59c-1.105 0-1.799 0.8737-1.479 1.931z" fill="#3c9cf5"/><g fill="#3c9cf5" stroke="#3c9cf5" stroke-linejoin="round" stroke-width="4"><g stroke-width="6"><path d="m298 35h9v-7a15 15 45 0 0-15-15h-24a15 15 135 0 0-15 15v5.25a16.53 16.53 52.91 0 0 12.03 15.91l27.2 7.707a7.936 7.936 52.91 0 1 5.773 7.636v5a6 6 135 0 1-6 6h-24a6 6 45 0 1-6-6v-7h-9v7a15 15 45 0 0 15 15h24a15 15 135 0 0 15-15v-5.25a16.53 16.53 52.91 0 0-12.03-15.91l-27.2-7.707a7.936 7.936 52.91 0 1-5.773-7.636v-5a6 6 135 0 1 6-6h24a6 6 45 0 1 6 6z"/><path d="m333 84.5v-71.5h15.09l16.41 50.5h6l16.41-50.5h15.09v71.5h-9v-44.75h-6.46l-14.54 44.75h-9l-14.54-44.75h-6.46v44.75z"/><path d="m428 84.5v-71.5h15.09l16.41 50.5h6l16.41-50.5h15.09v71.5h-9v-44.75h-6.46l-14.54 44.75h-9l-14.54-44.75h-6.46v44.75z"/></g><path d="m277 188v-67.5h-25v-6h56v6h-25v67.5z"/><path d="m342 117.5h31a12 12 45 0 1 12 12v43.5a12 12 135 0 1-12 12h-31a12 12 45 0 1-12-12v-43.5a12 12 135 0 1 12-12z" fill="none" stroke-width="10"/><path d="m417 114.5h6v58.5a9 9 45 0 0 9 9h26a9 9 135 0 0 9-9v-58.5h6v58.5a15 15 135 0 1-15 15h-26a15 15 45 0 1-15-15z"/><path d="m557 167h6v6a15 15 135 0 1-15 15h-31a15 15 45 0 1-15-15v-43.5a15 15 135 0 1 15-15h31a15 15 45 0 1 15 15v6h-6v-6a9 9 45 0 0-9-9h-31a9 9 135 0 0-9 9v43.5a9 9 45 0 0 9 9h31a9 9 135 0 0 9-9z"/><path d="m592 114.5h6v33.75h44v-33.75h6v73.5h-6v-33.75h-44v33.75h-6z"/></g></svg>
